<?xml version="1.0" encoding="UTF-8" standalone="no"?>
<!-- Created with Inkscape (http://www.inkscape.org/) -->

<svg
   version="1.1"
   id="svg1"
   width="556"
   height="553"
   viewBox="0 0 556 553"
   sodipodi:docname="ChangePlanIcon.svg"
   inkscape:version="1.4 (86a8ad7, 2024-10-11)"
   xmlns:inkscape="http://www.inkscape.org/namespaces/inkscape"
   xmlns:sodipodi="http://sodipodi.sourceforge.net/DTD/sodipodi-0.dtd"
   xmlns="http://www.w3.org/2000/svg"
   xmlns:svg="http://www.w3.org/2000/svg">
  <defs
     id="defs1" />
  <sodipodi:namedview
     id="namedview1"
     pagecolor="#505050"
     bordercolor="#ffffff"
     borderopacity="1"
     inkscape:showpageshadow="0"
     inkscape:pageopacity="0"
     inkscape:pagecheckerboard="1"
     inkscape:deskcolor="#505050"
     inkscape:zoom="1.0331687"
     inkscape:cx="214.389"
     inkscape:cy="242.94194"
     inkscape:window-width="1920"
     inkscape:window-height="1009"
     inkscape:window-x="-8"
     inkscape:window-y="-8"
     inkscape:window-maximized="1"
     inkscape:current-layer="g1" />
  <g
     inkscape:groupmode="layer"
     inkscape:label="Image"
     id="g1">
    <path
       style="fill:#ffffff"
       d="M 253.5,551.39479 C 155.98558,541.86385 72.320798,484.47121 28.728282,397.20515 24.13863,388.01732 19.603995,378.25 18.651315,375.5 10.621486,352.32114 6.3550574,336.91647 3.5100342,320.82983 0.34173969,302.91531 2.0697811,294.78201 10.925896,285.9259 c 6.403305,-6.40331 12.34982,-8.92898 21.002243,-8.92032 15.725908,0.0157 27.204922,9.54635 30.424956,25.26075 0.815238,3.97852 2.264586,11.28367 3.220775,16.23367 4.152707,21.49774 17.112573,53.17311 29.449662,71.97828 28.465268,43.38902 68.500328,74.26663 116.931428,90.18505 9.20943,3.02697 20.5209,5.69133 34.13672,8.04072 14.52763,2.50673 50.96897,2.50046 65.90832,-0.0113 56.06077,-9.42567 103.37924,-37.24915 138.84696,-81.64267 2.83422,-3.54747 4.81561,-6.78629 4.40308,-7.19736 -0.41252,-0.41107 -14.92504,-0.88359 -32.25004,-1.05004 -35.69034,-0.3429 -35.24609,-0.25171 -43.70216,-8.97012 -6.13168,-6.32191 -8.76473,-12.77147 -8.70904,-21.33252 0.0834,-12.82423 7.89901,-23.91978 20.05162,-28.46665 5.26407,-1.96954 7.51983,-2.03335 71.88637,-2.03335 63.184,0 66.70106,0.0947 71.52157,1.92638 7.0133,2.66484 11.49668,6.33955 15.78947,12.9415 L 553.5,358.5 V 430 c 0,71.42087 -0.002,71.50443 -2.16527,75.5 -7.00484,12.94038 -22.4134,19.23542 -36.82688,15.04531 -4.77805,-1.38902 -6.9715,-2.82907 -11.99145,-7.87264 C 493.8682,503.98377 493,500.47239 493,474.1844 493,463.08298 492.74186,454 492.42635,454 c -0.31551,0 -2.90301,2.56967 -5.75,5.71038 -38.03905,41.96345 -88.5334,72.09521 -142.17635,84.84166 -22.82815,5.42435 -33.22228,6.60516 -61,6.92982 -14.3,0.16714 -27.8,0.12796 -30,-0.0871 z M 513.69799,274.6152 c -5.71234,-2.1264 -11.53951,-6.52391 -14.65765,-11.06151 C 495.87091,258.94145 493.92292,252.64262 491.44683,239 484.01096,198.03045 464.12976,159.80742 434.07531,128.69917 400.59084,94.040637 360.17479,72.958834 311,64.500676 298.02718,62.269327 269.06222,61.440715 255.95455,62.925969 200.18577,69.245232 152.18307,93.630605 115.2176,134.42035 c -8.68221,9.58044 -15.274178,18.18974 -14.51149,18.95243 0.34497,0.34497 14.16472,0.64697 30.71056,0.67111 32.50927,0.0474 34.07732,0.25771 41.80522,5.60615 7.16797,4.96091 12.83649,16.32103 12.74546,25.54278 -0.0422,4.27143 -2.98411,12.75077 -5.89328,16.98575 -3.13065,4.5574 -9.60086,9.22579 -15.50221,11.18517 C 160.20775,214.81273 152.05745,215 93.359374,215 28.046565,215 26.991063,214.96859 21.346624,212.85673 13.695828,209.9942 6.995527,203.27672 4.1168552,195.58278 1.9574247,189.81118 1.9484775,189.45939 2.2235856,121.14189 L 2.5,52.5 4.9670937,47.670231 C 7.7752328,42.172806 12.941226,37.13777 19.20494,33.793312 c 6.136527,-3.276548 20.306524,-3.256094 26.586551,0.03838 5.783165,3.033818 11.349026,8.778825 14.285598,14.745401 C 62.38875,53.273961 62.515237,54.544583 62.831847,76.25 63.014363,88.7625 63.368665,99 63.619184,99 63.869704,99 69.49509,93.392359 76.120042,86.538574 119.18555,41.985548 171.66789,14.582513 234.5,3.8423483 245.85664,1.9011079 251.22915,1.6140545 277,1.5715718 c 30.75419,-0.050698 36.30564,0.4543959 59.5,5.4135547 28.72456,6.1415645 59.59668,18.4102285 85.5,33.9779365 32.38963,19.465936 64.44179,49.806482 86.13669,81.536937 17.76559,25.98352 31.762,56.57648 39.25553,85.80363 5.04786,19.68826 5.97752,25.25726 6.04247,36.19637 0.0562,9.46344 -0.23746,11.55875 -2.10217,15 -2.61639,4.82845 -9.53922,11.62308 -14.33252,14.06711 -4.65687,2.37447 -18.11293,2.9797 -23.30201,1.04809 z"
       id="path1" />
  </g>
</svg>
