<?xml version="1.0" encoding="UTF-8" standalone="no"?>
<!-- Created with Inkscape (http://www.inkscape.org/) -->

<svg
   version="1.1"
   id="svg1"
   width="382"
   height="364"
   viewBox="0 0 382 364"
   sodipodi:docname="defaultImage.svg"
   inkscape:version="1.4 (86a8ad7, 2024-10-11)"
   xmlns:inkscape="http://www.inkscape.org/namespaces/inkscape"
   xmlns:sodipodi="http://sodipodi.sourceforge.net/DTD/sodipodi-0.dtd"
   xmlns="http://www.w3.org/2000/svg"
   xmlns:svg="http://www.w3.org/2000/svg">
  <defs
     id="defs1" />
  <sodipodi:namedview
     id="namedview1"
     pagecolor="#505050"
     bordercolor="#ffffff"
     borderopacity="1"
     inkscape:showpageshadow="0"
     inkscape:pageopacity="0"
     inkscape:pagecheckerboard="1"
     inkscape:deskcolor="#505050"
     inkscape:zoom="0.1767767"
     inkscape:cx="31.112698"
     inkscape:cy="-67.882251"
     inkscape:window-width="1920"
     inkscape:window-height="1009"
     inkscape:window-x="-8"
     inkscape:window-y="-8"
     inkscape:window-maximized="1"
     inkscape:current-layer="g1" />
  <g
     inkscape:groupmode="layer"
     inkscape:label="Image"
     id="g1">
    <ellipse
       style="fill:#f3f3f4;fill-opacity:1;fill-rule:evenodd;stroke:#102448;stroke-width:0;stroke-linecap:square;stroke-linejoin:round;stroke-miterlimit:5.2;stroke-opacity:0.898039;paint-order:fill markers stroke"
       id="path31"
       cx="191.12987"
       cy="182"
       rx="183.15382"
       ry="182" />
    <path
       style="display:inline;fill:#b0b4b7;fill-opacity:1;fill-rule:evenodd;stroke:#102448;stroke-width:0;stroke-linecap:square;stroke-linejoin:round;stroke-miterlimit:5.2;stroke-opacity:0.898039;paint-order:fill markers stroke"
       d="m 185.71354,197.31928 c -0.9636,-0.1493 -2.61209,-0.368 -3.6633,-0.48599 -1.05121,-0.118 -2.06144,-0.33229 -2.24496,-0.4762 -0.18352,-0.14391 -1.11527,-0.39716 -2.07056,-0.56277 -5.72996,-0.99335 -12.21305,-4.00591 -18.94095,-8.80149 -3.00936,-2.14504 -2.75307,-1.92736 -5.5112,-4.68082 -3.0803,-3.07508 -4.37021,-4.52781 -5.06566,-5.70512 -0.30137,-0.51018 -0.66039,-0.92761 -0.79782,-0.92761 -0.13743,0 -0.24987,-0.20307 -0.24987,-0.45128 0,-0.2482 -0.10931,-0.49905 -0.24292,-0.55746 -0.53766,-0.23502 -2.55598,-3.46466 -3.94827,-6.31787 -2.86325,-5.86765 -3.34442,-7.30615 -4.95472,-14.81248 -0.41832,-1.94996 -0.5489,-4.15666 -0.55607,-9.39717 -0.0104,-7.62342 0.32324,-10.43007 1.75807,-14.7879 0.51472,-1.5633 0.93586,-3.07688 0.93586,-3.36351 0,-0.28664 0.21046,-0.79942 0.46769,-1.13951 0.25723,-0.34008 0.47225,-1.0023 0.47782,-1.47159 0.006,-0.46929 0.21,-1.05313 0.45429,-1.29742 0.54381,-0.54381 1.78568,-3.21803 1.78568,-3.84526 0,-0.25096 0.21502,-0.63475 0.47782,-0.85285 0.2628,-0.21811 0.47782,-0.51931 0.47782,-0.66934 0,-0.37163 3.24073,-4.8421 3.74058,-5.16 0.2203,-0.1401 0.40055,-0.44953 0.40055,-0.6876 0,-0.50414 5.28095,-5.83797 8.5287,-8.6141 1.22979,-1.05121 3.12752,-2.484674 4.21717,-3.18548 1.08966,-0.700805 2.35878,-1.522942 2.82027,-1.826969 1.55734,-1.025955 6.94837,-3.555961 8.32496,-3.906896 0.43801,-0.11166 1.22641,-0.395345 1.75202,-0.63041 2.51684,-1.125606 6.82439,-2.004989 11.78628,-2.406163 4.73408,-0.382755 13.76981,-0.115703 15.51645,0.45859 0.75163,0.247133 1.84213,0.547586 2.42334,0.667674 0.5812,0.120087 1.44128,0.418967 1.91129,0.664177 0.47,0.24521 1.06957,0.448806 1.33237,0.452435 0.57047,0.0079 2.9459,0.797237 4.34854,1.445028 0.55208,0.254973 1.11414,0.463587 1.24902,0.463587 0.5189,0 4.49028,2.058218 5.55162,2.877195 0.61321,0.473176 1.43745,0.960792 1.83165,1.083591 0.39421,0.1228 0.71674,0.356959 0.71674,0.520354 0,0.163395 0.19986,0.297082 0.44413,0.297082 0.24427,0 0.92517,0.457321 1.5131,1.016265 0.58794,0.55895 1.93314,1.68537 2.98934,2.50316 2.10538,1.63014 5.28031,4.70108 7.40739,7.16476 1.9421,2.24944 4.52909,6.14594 4.52909,6.82169 0,0.31535 0.20946,0.7472 0.46548,0.95968 0.25602,0.21247 0.56334,0.6959 0.68293,1.07428 0.1196,0.37838 0.53949,1.11801 0.9331,1.64361 0.39361,0.52561 0.81958,1.45736 0.94659,2.07057 0.12702,0.6132 0.34649,1.25939 0.48771,1.43597 0.33435,0.41809 1.23908,2.87761 1.58096,4.29789 0.1476,0.61321 0.49066,1.71453 0.76235,2.44739 0.7998,2.15737 1.36957,7.50775 1.43553,13.48002 0.0541,4.90012 -0.0347,6.01781 -0.73414,9.23789 -1.03113,4.74717 -1.66863,7.02182 -2.08451,7.43769 -0.18418,0.18419 -0.33488,0.6651 -0.33488,1.0687 0,0.4036 -0.28669,1.26872 -0.63709,1.9225 -0.35041,0.65378 -0.6371,1.38643 -0.6371,1.62811 0,0.24169 -0.33958,1.10389 -0.75463,1.91601 -0.41504,0.81212 -0.92425,1.83494 -1.13157,2.27295 -0.20733,0.438 -0.68025,1.36975 -1.05095,2.07056 -0.66599,1.25904 -0.6771,1.26472 -0.93468,0.47782 -0.23499,-0.71791 -0.24758,-0.70131 -0.12777,0.16844 0.10019,0.72729 -0.0939,1.22461 -0.78848,2.02012 -0.50676,0.58042 -1.00821,1.32886 -1.11433,1.66321 -0.10611,0.33435 -0.3185,0.6079 -0.47196,0.6079 -0.15347,0 -0.60969,0.54849 -1.01382,1.21885 -0.64365,1.06768 -3.51734,3.94126 -6.91334,6.9131 -0.59499,0.52067 -1.58263,1.41255 -2.19476,1.98196 -0.61214,0.5694 -1.30367,1.03528 -1.53675,1.03528 -0.38337,0 -5.15798,3.04519 -5.53952,3.53305 -0.0876,0.11201 -0.51764,0.30635 -0.95565,0.43186 -0.438,0.12551 -1.5131,0.55741 -2.38911,0.95979 -4.44615,2.04226 -7.78944,3.05751 -13.85684,4.2079 -3.0587,0.57994 -11.33684,0.8177 -14.01612,0.40257 z m -44.0586,-35.25793 c -0.0801,-0.3066 -0.14568,-0.0558 -0.14568,0.55746 0,0.6132 0.0656,0.86406 0.14568,0.55746 0.0801,-0.30661 0.0801,-0.80832 0,-1.11492 z m 101.94774,-29.30643 c -0.12698,-0.53091 -0.14489,-0.53091 -0.37599,0 -0.13345,0.30661 -0.13345,0.80832 0,1.11492 0.2311,0.53092 0.24901,0.53092 0.37599,0 0.0733,-0.3066 0.0733,-0.80831 0,-1.11492 z M 197.81837,90.626936 c 0,-0.175202 -0.14334,-0.318548 -0.31855,-0.318548 -0.1752,0 -0.31854,0.143346 -0.31854,0.318548 0,0.175201 0.14334,0.318548 0.31854,0.318548 0.17521,0 0.31855,-0.143347 0.31855,-0.318548 z"
       id="path30" />
    <path
       style="fill:#b0b4b7;fill-opacity:1;fill-rule:evenodd;stroke:#102448;stroke-width:0;stroke-linecap:square;stroke-linejoin:round;stroke-miterlimit:5.2;stroke-opacity:0.898039;paint-order:fill markers stroke"
       d="m 167.60847,360.25415 c -14.13011,-1.91681 -31.59206,-6.62417 -45.83016,-12.3548 -6.5882,-2.65167 -23.239655,-11.33784 -28.525835,-14.88042 -3.49689,-2.34346 -3.611984,-2.58374 -3.874045,-8.08762 -0.255706,-5.37042 1.711253,-18.28986 3.3797,-22.19864 0.423042,-0.99109 1.686797,-4.23465 2.808344,-7.20792 5.133056,-13.60794 12.434046,-24.76709 23.380416,-35.73563 12.29704,-12.32195 25.64583,-20.26991 44.07973,-26.24536 8.42612,-2.73138 9.00091,-2.79269 26.6318,-2.84096 16.01306,-0.0438 18.88878,0.18067 25.823,2.01605 8.68189,2.29796 22.49457,7.63895 25.97437,10.0436 1.24411,0.85972 2.8702,1.79521 3.61352,2.07886 2.85175,1.08822 18.67025,14.59155 22.76344,19.43181 13.45014,15.90503 23.26184,37.4334 24.54119,53.84711 0.30596,3.92545 0.74032,8.04138 0.96523,9.14648 0.5367,2.63709 -4.67005,6.47237 -18.53719,13.65447 -16.18625,8.38323 -29.57979,13.08909 -50.00495,17.56939 -15.46602,3.39251 -39.67687,4.13911 -57.18856,1.76358 z"
       id="path28" />
    <path
       style="fill:#b0b4b7;fill-opacity:1;fill-rule:evenodd;stroke:#102448;stroke-width:0;stroke-linecap:square;stroke-linejoin:round;stroke-miterlimit:5.2;stroke-opacity:0.898039;paint-order:fill markers stroke"
       d="m 78.429832,326.42365 c -0.595401,-0.51754 -1.324509,-0.94098 -1.62025,-0.94098 -0.295737,0 -1.227653,-0.65885 -2.070922,-1.46411 -0.843268,-0.80526 -2.63185,-2.37636 -3.974623,-3.49133 -4.643676,-3.85588 -13.100671,-11.96842 -13.100671,-12.56707 0,-0.19289 -0.93443,-1.22653 -2.076507,-2.29697 -1.142082,-1.07045 -3.17021,-3.42517 -4.506961,-5.23272 -1.336749,-1.80755 -2.706168,-3.44807 -3.043152,-3.6456 -0.336985,-0.19752 -0.929489,-0.97937 -1.316676,-1.73744 -0.387187,-0.75807 -1.495974,-2.17713 -2.463972,-3.15346 -1.886304,-1.90255 -6.865009,-8.95655 -6.865009,-9.72658 0,-0.25562 -0.670232,-1.24777 -1.489404,-2.20479 -0.819171,-0.95702 -1.773361,-2.30695 -2.120421,-2.99983 -0.34706,-0.69289 -0.867734,-1.56388 -1.157054,-1.93554 -0.696207,-0.89435 -2.61288,-4.66219 -6.416574,-12.61386 -4.603895,-9.62451 -5.484864,-11.59285 -5.484864,-12.25477 0,-0.32873 -0.405445,-1.35416 -0.90099,-2.27874 -0.495544,-0.92458 -0.90099,-2.00591 -0.90099,-2.40297 0,-0.39705 -0.284037,-1.36072 -0.631195,-2.14148 -1.020273,-2.29461 -2.863677,-8.03446 -3.18647,-9.92178 -0.164128,-0.95964 -0.892718,-3.49209 -1.619088,-5.62768 -0.72637,-2.1356 -1.320673,-4.33106 -1.320673,-4.87882 0,-0.54776 -0.198839,-1.46159 -0.441864,-2.03074 -0.433321,-1.0148 -0.890618,-3.68921 -2.7959585,-16.35164 -0.822545,-5.46643 -0.9491466,-8.34814 -0.9499932,-21.62376 -6.381e-4,-10.00529 0.1937117,-16.56661 0.5604439,-18.92079 0.3087813,-1.98218 0.7315222,-4.92166 0.939424,-6.53218 0.4004666,-3.10223 1.0241918,-6.57259 1.7812788,-9.91089 0.252864,-1.11498 0.670991,-3.24357 0.929172,-4.7302 0.657198,-3.78421 3.036004,-12.66685 4.041586,-15.09158 0.4624,-1.11498 1.37762,-3.74818 2.033822,-5.85156 0.656202,-2.10338 1.579846,-4.62481 2.052543,-5.60318 0.472696,-0.97837 0.859447,-2.02045 0.859447,-2.31574 0,-0.29529 0.705738,-1.92968 1.568306,-3.63197 0.862569,-1.70229 1.572098,-3.34848 1.576733,-3.6582 0.0046,-0.30971 0.211149,-0.56312 0.458922,-0.56312 0.247772,0 0.450495,-0.33179 0.450495,-0.73731 0,-0.66064 1.012923,-2.67846 6.979553,-13.903775 0.921895,-1.734406 1.876228,-3.096451 2.120741,-3.026764 0.244513,0.06969 0.35904,-0.129886 0.254504,-0.443494 -0.181459,-0.544378 3.032828,-5.899818 4.559737,-7.597153 1.242427,-1.381096 2.816152,-3.420343 3.359705,-4.353535 1.2746,-2.188279 3.118741,-4.733919 4.899359,-6.763047 1.060337,-1.208318 2.481237,-2.894278 3.157555,-3.746574 5.082442,-6.4049 19.030125,-20.137183 23.772806,-23.405682 0.867203,-0.597648 2.424803,-1.926025 3.461334,-2.951951 1.036535,-1.025926 2.601167,-2.205351 3.476966,-2.620945 0.875798,-0.415593 1.750867,-1.016286 1.944602,-1.334873 0.374582,-0.615978 9.332496,-7.050536 9.815454,-7.050536 0.156943,0 1.132765,-0.56308 2.168494,-1.251289 1.035733,-0.688209 2.59268,-1.606633 3.459883,-2.040942 0.867203,-0.43431 3.806684,-1.991567 6.532174,-3.460572 4.93056,-2.657501 7.08717,-3.734127 9.23515,-4.610385 0.61943,-0.252694 1.66432,-0.738831 2.32198,-1.080306 0.65766,-0.341474 1.46856,-0.62537 1.80198,-0.63088 0.33343,-0.0055 1.11305,-0.406447 1.73248,-0.890973 0.61943,-0.484526 1.48375,-0.885463 1.92072,-0.890973 0.43696,-0.0055 1.14649,-0.208203 1.57673,-0.45043 0.8249,-0.464426 8.23817,-3.1826746 10.91839,-4.0034855 4.42527,-1.3552288 11.16957,-3.2964737 12.16337,-3.5010457 0.61943,-0.1275086 1.53168,-0.4054726 2.02722,-0.6176977 0.49555,-0.2122255 1.61052,-0.5087143 2.47773,-0.6588648 0.8672,-0.15015 2.59034,-0.4654243 3.8292,-0.7006092 4.01123,-0.7614887 12.51669,-1.8935905 16.40586,-2.1836683 2.417,-0.180274 3.85994,-0.48701992 3.97937,-0.84594851 0.14552,-0.43732005 4.00922,-0.56311881 17.29524,-0.56311881 10.23998,0 17.00551,0.16559621 16.85292,0.41249944 -0.30547,0.49425271 3.59316,1.38948078 6.05104,1.38948078 0.96277,0 2.25139,0.1904421 2.8636,0.4232046 0.61221,0.2327626 2.80468,0.649626 4.87215,0.9263633 2.06746,0.2767372 5.6849,0.9959017 8.03874,1.5981437 2.35383,0.6022421 5.5974,1.4268003 7.20792,1.8323521 1.61052,0.4055515 4.25093,1.2190883 5.86759,1.8078592 1.61665,0.5887714 3.29132,1.0704929 3.72149,1.0704929 0.43017,0 1.64148,0.3744542 2.69182,0.8321205 1.05033,0.457666 3.02467,1.19678 4.38741,1.642476 1.36275,0.445695 3.28862,1.196296 4.27971,1.668001 0.99109,0.471705 3.11967,1.365223 4.73019,1.985596 1.61052,0.620372 3.28299,1.319823 3.71659,1.554334 1.76082,0.952332 2.60957,1.381321 8.38556,4.238386 3.31126,1.637896 6.65619,3.437075 7.43317,3.998176 0.77699,0.561102 2.02087,1.313197 2.76419,1.671324 1.9349,0.932226 8.92572,5.427337 9.4604,6.08305 0.24777,0.303864 1.67808,1.376945 3.17847,2.384625 1.50039,1.007681 3.3249,2.386823 4.05446,3.064761 0.72956,0.677939 2.23872,1.918137 3.3537,2.755997 1.11497,0.83786 2.53403,2.067131 3.15346,2.731714 0.61943,0.664585 1.88578,1.7746 2.8141,2.466709 1.76123,1.313076 7.30044,6.41805 9.22906,8.505554 0.61436,0.664985 2.53252,2.692213 4.26257,4.504951 3.51174,3.679607 8.89759,10.227999 11.23267,13.657275 2.5334,3.720517 5.49266,7.648645 5.88261,7.808579 0.20137,0.08259 0.37176,0.386678 0.37866,0.675743 0.007,0.289069 0.61506,1.321901 1.35148,2.295187 0.73642,0.973285 1.34245,1.986899 1.34674,2.252475 0.004,0.265576 0.46392,0.914879 1.02143,1.442895 0.55751,0.528016 1.31389,1.54163 1.68086,2.252475 0.36696,0.710845 0.77196,1.393809 0.89999,1.517696 0.12803,0.123886 0.63516,1.084494 1.12696,2.134684 0.49179,1.050189 1.0462,1.911761 1.23203,1.914604 0.18583,0.0028 0.33787,0.236172 0.33787,0.518515 0,0.282343 1.59077,3.779311 3.53504,7.771039 1.94428,3.99173 3.9527,8.37267 4.46316,9.73541 0.51047,1.36275 1.63889,4.30223 2.50761,6.53218 0.86872,2.22995 1.8221,4.96671 2.11862,6.08169 0.29653,1.11497 0.69643,2.43267 0.88868,2.92821 0.19225,0.49555 0.57121,1.71189 0.84214,2.70297 0.27093,0.99109 0.9034,3.19558 1.40549,4.89886 0.50208,1.70328 1.0408,4.23731 1.19715,5.63119 0.15634,1.39387 0.44963,2.85781 0.65175,3.25319 0.20212,0.39538 0.78634,3.43623 1.29828,6.75742 0.51193,3.32121 1.12387,7.05217 1.35986,8.29103 1.01679,5.33781 1.48042,16.07038 1.19683,27.70544 -0.16004,6.56597 -0.49638,12.74901 -0.74742,13.7401 -0.25104,0.99109 -0.67075,3.42376 -0.93269,5.40594 -1.03958,7.86699 -1.26441,9.20341 -2.42522,14.41584 -1.83189,8.22579 -1.84951,8.29569 -3.12181,12.38862 -0.65468,2.10606 -1.62393,5.24827 -2.15391,6.98267 -0.85966,2.81335 -1.98629,5.77333 -3.77229,9.91089 -0.32085,0.74332 -0.72025,1.90066 -0.88756,2.57187 -0.1673,0.67121 -0.58838,1.45624 -0.93573,1.74452 -0.34735,0.28827 0,-0.34467 0,0 0,0.34469 -0.8119,2.12953 -1.03233,2.55978 -0.22044,0.43024 -1.72461,3.51901 -3.34259,6.86393 -3.27157,6.76341 -7.33419,14.09353 -9.07902,16.38112 -0.62862,0.82417 -1.14295,1.62907 -1.14295,1.78868 0,0.15961 -0.29161,0.64728 -0.64803,1.08372 -0.35641,0.43643 -1.37002,1.67427 -2.25247,2.75074 -0.88244,1.07647 -1.60445,2.09906 -1.60445,2.2724 0,0.17335 -0.76021,1.13259 -1.68935,2.13165 -0.92915,0.99905 -1.99206,2.40914 -2.36203,3.13353 -0.36997,0.72439 -0.98856,1.62116 -1.37465,1.99282 -0.38609,0.37165 -1.29871,1.48663 -2.02803,2.47772 -0.72933,0.99109 -1.85716,2.30878 -2.5063,2.92822 -0.64913,0.61943 -2.20862,2.38859 -3.46552,3.93147 -3.2407,3.97805 -8.24918,7.74655 -14.99131,13.45794 -1.85829,1.5742 -4.04796,3.38379 -4.5435,3.82105 -5.4134,4.77666 -4.76552,5.22259 -5.00419,-0.14982 -0.25113,-5.65265 -1.39112,-12.97627 -2.72779,-17.52413 -0.6081,-2.06897 -1.35816,-4.72992 -1.66679,-5.91322 -0.30864,-1.1833 -0.73607,-2.25956 -0.94986,-2.39169 -0.21378,-0.13212 -0.3887,-0.71189 -0.3887,-1.28838 0,-0.57648 -0.30283,-1.62881 -0.67296,-2.33851 -0.37014,-0.7097 -0.67498,-1.59444 -0.67743,-1.9661 -0.002,-0.37166 -0.40915,-1.33949 -0.90377,-2.15074 -0.49461,-0.81125 -0.8993,-1.835 -0.8993,-2.275 0,-0.44 -0.18285,-0.99259 -0.40632,-1.22797 -0.22348,-0.23539 -1.61258,-2.76899 -3.08688,-5.63023 -1.47431,-2.86124 -4.23095,-7.47032 -6.12586,-10.24242 -1.89492,-2.77209 -3.4453,-5.17128 -3.4453,-5.33154 0,-0.16025 -0.36519,-0.61923 -0.81153,-1.01995 -0.44635,-0.40072 -1.40655,-1.53948 -2.13378,-2.53057 -1.46639,-1.99841 -9.59116,-10.24634 -12.94971,-13.14598 -1.18521,-1.02326 -1.9961,-1.94776 -1.80198,-2.05445 0.19412,-0.10669 0.0851,-0.12667 -0.24221,-0.0444 -0.32733,0.0823 -1.34095,-0.55737 -2.25247,-1.42141 -0.91153,-0.86404 -1.87251,-1.57274 -2.1355,-1.57489 -0.263,-0.002 -0.91162,-0.40772 -1.44138,-0.90127 -0.95506,-0.88977 -6.24491,-4.47237 -10.17905,-6.89384 -1.12503,-0.69246 -4.53933,-2.39534 -7.58732,-3.78419 -7.98123,-3.63674 -9.29502,-4.19193 -9.91966,-4.19193 -0.30716,0 -1.88047,-0.49661 -3.49625,-1.10357 -4.83181,-1.81505 -13.33132,-3.65762 -22.03277,-4.7764 -7.3535,-0.94546 -29.00864,-0.0613 -33.61292,1.37245 -0.74332,0.23145 -3.86281,1.04908 -6.9322,1.81695 -4.96861,1.24298 -7.10228,1.8997 -10.18662,3.13531 -0.49554,0.19852 -1.9146,0.71683 -3.15346,1.1518 -7.51465,2.63842 -22.84882,11.59667 -27.06156,15.80941 -0.83317,0.83316 -1.67364,1.52027 -1.86773,1.52691 -0.19409,0.007 -1.45866,1.03339 -2.81016,2.28167 -1.35151,1.24829 -2.66921,2.41038 -2.92822,2.58243 -0.72677,0.48275 -7.88662,8.09908 -10.37589,11.03741 -2.32939,2.74962 -5.801074,7.582 -7.041634,9.80155 -0.400814,0.71711 -0.929911,1.55966 -1.175774,1.87233 -0.459946,0.58492 -2.921969,5.09382 -5.599126,10.25412 -3.065002,5.90789 -6.914509,16.27418 -7.611727,20.49753 -0.20452,1.23886 -0.669701,3.57017 -1.033737,5.18069 -0.364036,1.61052 -0.886052,3.94183 -1.160038,5.18069 -0.273982,1.23887 -0.647326,4.65247 -0.829645,7.58578 l -0.331493,5.33331 z M 34.913366,275.02723 c -0.21796,-0.35267 -0.477105,-0.37884 -0.777435,-0.0785 -0.247772,0.24778 -0.303372,0.68855 -0.123555,0.9795 0.217961,0.35266 0.477106,0.37883 0.777435,0.0785 0.247773,-0.24777 0.303372,-0.68854 0.123555,-0.97949 z M 198.52132,206.5606 c 1.19583,-0.24303 4.10009,-0.76705 6.45393,-1.16449 2.35383,-0.39743 4.88787,-0.99165 5.63119,-1.32048 0.74331,-0.32883 2.46646,-0.95236 3.8292,-1.38563 1.36275,-0.43327 3.08589,-1.13583 3.82921,-1.56125 0.74332,-0.42543 2.56782,-1.46988 4.05446,-2.321 1.48663,-0.85113 3.80499,-2.2443 5.15191,-3.09594 2.97654,-1.88204 11.13051,-10.01614 14.21937,-14.18473 1.23887,-1.67191 2.58943,-3.39731 3.00125,-3.83421 1.60849,-1.70644 5.00779,-9.0274 6.57631,-14.16317 2.29272,-7.50696 2.82447,-11.1713 2.87644,-19.82178 0.0376,-6.26006 -0.11748,-7.94843 -1.17944,-12.83911 -0.67252,-3.09715 -1.32427,-6.13799 -1.44834,-6.75742 -0.12408,-0.61943 -0.70221,-2.13986 -1.28475,-3.37872 -0.58255,-1.23886 -1.49959,-3.26609 -2.03788,-4.50495 -0.84139,-1.93646 -3.72972,-6.74939 -4.46078,-7.43317 -0.13245,-0.12388 -0.54491,-0.7706 -0.91657,-1.43715 -1.20176,-2.1553 -6.89449,-8.239398 -10.24876,-10.953356 -1.79635,-1.453437 -3.26609,-2.720107 -3.26609,-2.814824 0,-0.09472 0.43083,-0.03547 0.95741,0.131657 0.67998,0.215815 0.86105,0.147975 0.6249,-0.234135 -0.18288,-0.295903 -0.75148,-0.428444 -1.26356,-0.294534 -0.62547,0.163566 -1.66446,-0.294899 -3.16564,-1.396863 -1.95714,-1.436674 -2.12888,-1.686622 -1.3832,-2.013132 0.61944,-0.27123 0.51478,-0.307432 -0.38416,-0.132874 -0.85351,0.165737 -1.79456,-0.11297 -3.04346,-0.901368 -4.86954,-3.074007 -14.98201,-6.62189 -20.72348,-7.270675 -4.67723,-0.528525 -16.60889,-0.433818 -20.04703,0.159124 -1.7344,0.299115 -4.26844,0.73214 -5.63119,0.962275 -1.36274,0.230136 -3.08589,0.728703 -3.8292,1.107921 -0.74332,0.379218 -2.26374,1.043648 -3.37872,1.476506 -5.76338,2.237479 -14.22759,7.289564 -18.18607,10.854827 -1.05002,0.945711 -2.60781,2.342349 -3.46177,3.103636 -2.97981,2.656445 -9.10633,10.484115 -9.67068,12.355935 -0.18676,0.61944 -0.91996,1.97366 -1.62933,3.00939 -0.70938,1.03573 -1.28977,2.04613 -1.28977,2.24534 0,0.1992 -0.54277,1.48037 -1.20615,2.84705 -0.66338,1.36667 -1.34482,2.8903 -1.51431,3.38585 -0.98455,2.87858 -1.3352,4.23749 -1.34507,5.21268 -0.006,0.60184 -0.4061,2.27488 -0.8889,3.71786 -0.73154,2.18642 -0.88639,3.98809 -0.92926,10.81188 -0.0283,4.50355 0.15519,9.10052 0.40775,10.2155 0.25256,1.11497 0.69434,3.34493 0.98173,4.95544 0.57403,3.21675 1.03282,4.70493 2.30069,7.46278 0.46312,1.00737 0.84203,2.01963 0.84203,2.24945 0,0.88973 4.99859,10.39918 6.0733,11.55401 0.62405,0.67055 1.13463,1.35921 1.13463,1.53033 0,1.32726 9.16203,10.55036 13.96534,14.05841 4.57201,3.33913 14.41483,8.62729 16.07861,8.63843 0.54287,0.004 1.11232,0.20932 1.26545,0.45709 0.15313,0.24777 0.7613,0.45049 1.35149,0.45049 0.59018,0 1.19835,0.20273 1.35148,0.4505 0.15313,0.24777 0.85916,0.4505 1.56895,0.4505 1.19126,0 3.73837,0.44775 7.6662,1.34762 2.2807,0.52252 13.06834,0.53113 15.62033,0.0125 z m -50.94768,-14.8711 c 0,0 0.1184,0.0617 0,0 -0.0867,-0.0452 0.0111,-0.0401 0,0 -0.015,0.0541 -0.0387,-0.004 0,0 0.0349,0.004 0,0 0,0 z M 263.9901,16.469656 c 0,-0.233149 -0.20272,-0.549197 -0.4505,-0.702329 -0.24777,-0.153132 -0.45049,0.03763 -0.45049,0.423908 0,0.386281 0.20272,0.702329 0.45049,0.702329 0.24778,0 0.4505,-0.190758 0.4505,-0.423908 z M 208.02134,0.36621635 c -0.43071,-0.11275558 -1.2416,-0.11684666 -1.80198,-0.009091 -0.56037,0.1077554 -0.20797,0.20000994 0.78312,0.20501016 0.99108,0.005 1.44958,-0.0831633 1.01886,-0.19591916 z"
       id="path27"
       sodipodi:nodetypes="sssssssssssssssssssssssssssssssssscssssssssssssssssssssssssssssssssssssssssssssssssssssssssscscsssssssssssssssssssssssssssssssssssssssssssssssscsssssssssssscssssssssssscsssssssssscssssssssssssssssssssssssssssssssssssssssssssscssssssssscsssssssssssssssssssss" />
  </g>
</svg>
