<?xml version="1.0" encoding="UTF-8" standalone="no"?>
<!-- Created with Inkscape (http://www.inkscape.org/) -->

<svg
   version="1.1"
   id="svg1"
   width="794"
   height="834"
   viewBox="0 0 794 834"
   sodipodi:docname="DeleteIcon.svg"
   inkscape:version="1.4 (86a8ad7, 2024-10-11)"
   xmlns:inkscape="http://www.inkscape.org/namespaces/inkscape"
   xmlns:sodipodi="http://sodipodi.sourceforge.net/DTD/sodipodi-0.dtd"
   xmlns="http://www.w3.org/2000/svg"
   xmlns:svg="http://www.w3.org/2000/svg">
  <defs
     id="defs1" />
  <sodipodi:namedview
     id="namedview1"
     pagecolor="#505050"
     bordercolor="#ffffff"
     borderopacity="1"
     inkscape:showpageshadow="0"
     inkscape:pageopacity="0"
     inkscape:pagecheckerboard="1"
     inkscape:deskcolor="#505050"
     inkscape:zoom="0.68506269"
     inkscape:cx="329.16696"
     inkscape:cy="322.59822"
     inkscape:window-width="1920"
     inkscape:window-height="1009"
     inkscape:window-x="-8"
     inkscape:window-y="-8"
     inkscape:window-maximized="1"
     inkscape:current-layer="g1" />
  <g
     inkscape:groupmode="layer"
     inkscape:label="Image"
     id="g1">
    <path
       style="fill:#fa4545"
       d="m 288,831.88326 c -41.82854,-2.20361 -62.3808,-5.2969 -86,-12.94372 -13.34709,-4.32118 -29.83312,-12.57335 -38.5,-19.27139 C 137.22719,779.36371 121.74622,755.703 112.0282,721 c -0.69308,-2.475 -1.6098,-5.625 -2.03714,-7 -1.09617,-3.52697 -4.31127,-19.92628 -5.88152,-30 C 100.08815,658.20148 97.57706,629.59617 92.017283,546.25 91.457777,537.8625 90.55,524.25 90,516 c -0.55,-8.25 -1.45,-21.75 -2,-30 -0.55,-8.25 -1.45,-21.75 -2,-30 -0.55,-8.25 -1.45,-21.75 -2,-30 -0.55,-8.25 -1.45,-21.75 -2,-30 -0.55,-8.25 -1.45,-21.75 -2,-30 -0.55,-8.25 -1.442836,-21.6375 -1.98408,-29.75 -0.541244,-8.1125 -1.452773,-21.95 -2.025621,-30.75 -0.572847,-8.8 -1.466313,-21.175 -1.985479,-27.5 -1.339301,-16.31672 0.590771,-23.44609 8.692048,-32.10701 6.742825,-7.20863 11.91262,-9.31027 22.803132,-9.27002 6.24825,0.0231 10.15337,0.55139 12.77228,1.72788 4.70042,2.11155 11.32354,8.02125 14.16994,12.64358 4.2105,6.83753 4.59216,9.59669 7.53954,54.50557 0.57754,8.8 1.49292,22.6375 2.03416,30.75 0.54124,8.1125 1.43408,21.5 1.98408,29.75 0.55,8.25 1.45,21.75 2,30 0.55,8.25 1.45,21.75 2,30 0.55,8.25 1.45,21.75 2,30 0.55,8.25 1.45,21.75 2,30 0.55,8.25 1.45,21.75 2,30 0.55,8.25 1.45,21.75 2,30 0.55,8.25 1.4607,21.8625 2.02377,30.25 6.16438,91.82397 10.96475,122.41822 23.18258,147.75 5.48385,11.36991 17.63958,23.69725 28.79365,29.20015 27.7437,13.68743 52.99434,15.82417 187,15.82417 103.2764,0 129.48073,-1.0287 157,-6.16332 14.62366,-2.72853 17.74866,-3.73257 29.45891,-9.46496 30.10306,-14.73603 41.87329,-44.82003 48.47377,-123.89604 1.6609,-19.89827 2.97395,-37.1692 4.04839,-53.25 0.56041,-8.3875 1.46893,-22 2.01893,-30.25 0.55,-8.25 1.45,-21.75 2,-30 0.55,-8.25 1.45,-21.75 2,-30 0.55,-8.25 1.45,-21.75 2,-30 0.55,-8.25 1.45,-21.75 2,-30 0.55,-8.25 1.45,-21.75 2,-30 0.55,-8.25 1.45,-21.75 2,-30 0.55,-8.25 1.44284,-21.6375 1.98408,-29.75 0.54124,-8.1125 1.45662,-21.95 2.03416,-30.75 2.94738,-44.90888 3.32904,-47.66804 7.53954,-54.50557 2.8464,-4.62233 9.46952,-10.53203 14.16994,-12.64358 2.61891,-1.17649 6.52403,-1.70478 12.77228,-1.72788 10.89051,-0.0403 16.06031,2.06139 22.80313,9.27002 8.10128,8.66092 10.03135,15.79029 8.69205,32.10701 -0.51917,6.325 -1.41263,18.7 -1.98548,27.5 -0.57285,8.8 -1.48438,22.6375 -2.02562,30.75 -0.54124,8.1125 -1.43408,21.5 -1.98408,29.75 -0.55,8.25 -1.45,21.75 -2,30 -0.55,8.25 -1.45,21.75 -2,30 -0.55,8.25 -1.45,21.75 -2,30 -0.55,8.25 -1.45,21.75 -2,30 -0.55,8.25 -1.45,21.75 -2,30 -0.55,8.25 -1.45778,21.8625 -2.01728,30.25 -6.46939,96.98199 -8.65381,119.44466 -15.00035,154.25 -0.80753,4.42862 -3.52359,15.35024 -5.96847,24 -8.33608,29.49223 -24.74107,54.87819 -46.5139,71.9781 -8.78043,6.89596 -13.22628,9.63594 -24.5,15.0994 -9.80774,4.75301 -10.22114,4.92229 -19,7.78016 -22.10366,7.19564 -44.00578,10.32609 -88.50457,12.64989 C 480.19598,833.17206 310.5985,833.07379 288,831.88326 Z m 10.16983,-215.6802 c -2.93159,-1.51453 -7.02527,-4.38881 -9.09705,-6.38728 C 282.078,603.06852 280.41046,597.36411 278.01833,572 c -0.59652,-6.325 -1.50094,-15.55 -2.00982,-20.5 -0.50889,-4.95 -1.41272,-13.95 -2.00851,-20 -0.59579,-6.05 -1.49579,-15.05 -2,-20 -0.50421,-4.95 -1.40421,-13.95 -2,-20 -0.59579,-6.05 -1.49579,-15.05 -2,-20 -0.50421,-4.95 -1.40421,-13.95 -2,-20 -0.59579,-6.05 -1.49962,-15.05 -2.00851,-20 -0.50888,-4.95 -1.41781,-14.175 -2.01983,-20.5 -0.60203,-6.325 -1.51694,-14.78088 -2.03313,-18.79085 C 259.42234,388.19919 259,380.83852 259,375.85212 c 0,-8.02565 0.34701,-9.79328 3.02349,-15.40133 5.42726,-11.37181 13.75214,-16.6969 26.99274,-17.26618 7.36778,-0.31678 9.25575,-0.0352 14,2.08801 3.01608,1.34979 7.33456,4.28979 9.59664,6.53333 7.38597,7.32543 8.95452,12.59506 11.3688,38.19405 0.59652,6.325 1.50094,15.55 2.00982,20.5 0.50889,4.95 1.41272,13.95 2.00851,20 0.59579,6.05 1.49579,15.05 2,20 0.50421,4.95 1.40421,13.95 2,20 0.59579,6.05 1.49579,15.05 2,20 0.50421,4.95 1.40421,13.95 2,20 0.59579,6.05 1.49962,15.05 2.00851,20 0.50888,4.95 1.41781,14.175 2.01983,20.5 0.60203,6.325 1.51694,14.78088 2.03313,18.79085 1.33302,10.35535 1.13563,24.05667 -0.41054,28.49676 -2.99727,8.60721 -10.99996,16.51731 -19.72193,19.49376 -1.96405,0.67024 -6.91405,1.2089 -11,1.19701 -6.12315,-0.0178 -8.36593,-0.50566 -12.75917,-2.77532 z m 173.09848,1.38304 c -8.10958,-2.94925 -16.33066,-11.33192 -19.1097,-19.48532 -1.39814,-4.10199 -1.50852,-18.30085 -0.22008,-28.30993 0.51619,-4.00997 1.4311,-12.46585 2.03313,-18.79085 0.60202,-6.325 1.51095,-15.55 2.01983,-20.5 0.50889,-4.95 1.41272,-13.95 2.00851,-20 0.59579,-6.05 1.49579,-15.05 2,-20 0.50421,-4.95 1.40421,-13.95 2,-20 0.59579,-6.05 1.49579,-15.05 2,-20 0.50421,-4.95 1.40421,-13.95 2,-20 0.59579,-6.05 1.49962,-15.05 2.00851,-20 0.50888,-4.95 1.4133,-14.175 2.00982,-20.5 2.41428,-25.59899 3.98283,-30.86862 11.3688,-38.19405 C 487.40229,345.84009 494.43978,343 503.20752,343 c 14.3158,0 24.18603,6.42068 29.72133,19.33401 2.33572,5.44901 2.77736,17.09822 1.13262,29.87514 -0.51619,4.00997 -1.4311,12.46585 -2.03313,18.79085 -0.60202,6.325 -1.51095,15.55 -2.01983,20.5 -0.50889,4.95 -1.41272,13.95 -2.00851,20 -0.59579,6.05 -1.49579,15.05 -2,20 -0.50421,4.95 -1.40421,13.95 -2,20 -0.59579,6.05 -1.49579,15.05 -2,20 -0.50421,4.95 -1.40421,13.95 -2,20 -0.59579,6.05 -1.49962,15.05 -2.00851,20 -0.50888,4.95 -1.41118,14.175 -2.00511,20.5 -2.33655,24.88276 -4.14952,31.06523 -11.11073,37.88892 -2.11755,2.07572 -6.30251,4.97487 -9.29992,6.44256 -4.59433,2.24962 -6.67629,2.64979 -13.26278,2.54921 -4.29712,-0.0656 -9.26721,-0.64819 -11.04464,-1.29459 z M 26,191.81056 C 14.777612,187.07887 9.1806757,182.17062 5.0943107,173.47725 2.5590036,168.08362 2.1886483,155.17498 4.4170677,149.87212 8.1226673,141.0541 15.284587,134.18559 24.154139,130.94366 29.234891,129.08658 32.652215,129 100.86986,129 c 77.89395,0 75.28213,0.17971 88.63014,-6.09829 6.6514,-3.12837 19.20849,-15.79333 22.70665,-22.90171 1.48866,-3.025 5.00367,-12.475 7.81112,-21 5.5832,-16.95369 12.11403,-31.216424 17.71716,-38.692619 C 252.92907,20.033988 274.34216,6.9037204 299.45732,2.4599046 311.32674,0.35975636 482.94336,0.36361833 494,2.4642825 c 14.81106,2.8139704 22.27918,5.5179711 34.5,12.4915065 8.60273,4.908955 20.77106,16.019548 27.76507,25.351592 5.60313,7.476195 12.13396,21.738929 17.71716,38.692619 2.80745,8.525 6.32246,17.962182 7.81112,20.971516 3.16813,6.404404 16.07468,19.931464 21.20665,22.226204 7.70381,3.44474 10.67662,4.59933 14.61602,5.67666 2.87129,0.78522 25.70764,1.12562 75.51412,1.12562 68.21765,0 71.63497,0.0866 76.71572,1.94366 8.86955,3.24193 16.03147,10.11044 19.73707,18.92846 1.84785,4.39723 1.84785,17.85853 0,22.25576 -2.20341,5.24334 -7.18953,11.5746 -11.67356,14.82281 -9.04384,6.55133 22.58253,6.05618 -382.06328,5.98163 C 140.77851,192.88533 27.735881,192.54246 26,191.81056 Z m 498,-63.28453 c 0,-0.26068 -1.38555,-3.96188 -3.07899,-8.22489 -1.69345,-4.263 -5.10428,-13.81288 -7.57962,-21.221935 -5.41707,-16.21406 -7.17365,-19.807074 -12.18077,-24.915344 -3.77532,-3.851577 -7.32588,-5.88826 -14.05984,-8.065046 -4.99019,-1.613102 -174.84685,-1.535564 -180.48476,0.08239 -5.24337,1.504729 -13.54938,6.884801 -16.23298,10.514621 -3.43688,4.648718 -5.00483,8.256947 -9.71714,22.361561 -2.47935,7.421063 -5.89346,16.980753 -7.58691,21.243753 C 271.38555,124.56415 270,128.26535 270,128.52603 270,128.78671 327.15,129 397,129 c 69.85,0 127,-0.21329 127,-0.47397 z"
       id="path1" />
  </g>
</svg>
