<?xml version="1.0" encoding="UTF-8" standalone="no"?>
<!-- Created with Inkscape (http://www.inkscape.org/) -->

<svg
   version="1.1"
   id="svg1"
   width="673"
   height="695"
   viewBox="0 0 673 695"
   sodipodi:docname="editPencilIcon.svg"
   inkscape:version="1.4 (86a8ad7, 2024-10-11)"
   xmlns:inkscape="http://www.inkscape.org/namespaces/inkscape"
   xmlns:sodipodi="http://sodipodi.sourceforge.net/DTD/sodipodi-0.dtd"
   xmlns="http://www.w3.org/2000/svg"
   xmlns:svg="http://www.w3.org/2000/svg">
  <defs
     id="defs1" />
  <sodipodi:namedview
     id="namedview1"
     pagecolor="#505050"
     bordercolor="#ffffff"
     borderopacity="1"
     inkscape:showpageshadow="0"
     inkscape:pageopacity="0"
     inkscape:pagecheckerboard="1"
     inkscape:deskcolor="#505050"
     inkscape:zoom="0.58129496"
     inkscape:cx="147.0854"
     inkscape:cy="220.19802"
     inkscape:window-width="1920"
     inkscape:window-height="1009"
     inkscape:window-x="-8"
     inkscape:window-y="-8"
     inkscape:window-maximized="1"
     inkscape:current-layer="g1" />
  <g
     inkscape:groupmode="layer"
     inkscape:label="Image"
     id="g1">
    <path
       style="fill:#ffffff"
       d="m 191.53447,692.74634 c -2.59808,-0.68593 -5.74945,-2.83088 -9.1388,-6.22024 -4.28113,-4.28112 -5.39235,-6.15219 -6.4436,-10.84969 -2.46861,-11.03091 2.3987,-21.60916 12.40538,-26.9609 L 192.5,646.5 H 423 653.5 l 4.14255,2.21551 c 10.00668,5.35174 14.87399,15.92999 12.40538,26.9609 -1.6808,7.51061 -9.10485,15.34508 -16.24492,17.14297 -6.28699,1.58309 -456.26499,1.51198 -462.26854,-0.073 z M 26.998888,635.08287 C 18.259878,633.36776 9.0854571,625.98709 4.5212763,617 1.9350665,611.90763 1.3471121,598.61673 3.3364594,590.21683 5.5193948,580.99951 14.043096,544.30223 15.000353,540 18.774578,523.0374 31.304247,470.45659 32.498443,466.56919 34.331048,460.60361 39.192029,451.76317 43.258707,447 48.402369,440.9754 362.2103,127 363.08803,127 c 0.45802,0 31.78809,30.76068 69.62237,68.35706 37.83428,37.59639 70.9271,70.2906 73.5396,72.6538 2.6125,2.3632 4.75,4.79565 4.75,5.40543 0,0.60978 -72.04808,72.87807 -160.10684,160.5962 -108.06669,107.64866 -162.00963,160.7062 -165.96094,163.23693 -8.51033,5.45068 -12.63488,6.75405 -52.93222,16.72683 -20.075,4.96816 -38.975,9.70455 -42,10.52533 -36.536883,9.91354 -52.630766,12.61658 -63.001112,10.58129 z M 469.79159,166.95543 396.74019,93.91085 417.65288,72.705425 C 429.15486,61.042441 447.10082,42.780788 457.53279,32.123973 467.96475,21.467158 478.89771,11.193307 481.82825,9.2931915 496.64918,-0.31648212 515.19959,-1.2903612 532,6.6592209 c 7.11205,3.3652621 9.44008,5.4961561 45.00605,41.1948061 56.23829,56.448103 54.51731,54.388873 57.49245,68.792433 1.17246,5.67625 1.28246,8.77965 0.49863,14.06818 -1.85399,12.50893 -3.76041,17.8544 -9.71292,27.23435 C 621.32781,164.18347 546.41628,240 544.21262,240 c -0.75329,0 -34.24276,-32.87006 -74.42103,-73.04457 z"
       id="path1" />
  </g>
</svg>
