<?xml version="1.0" encoding="UTF-8" standalone="no"?>
<!-- Created with Inkscape (http://www.inkscape.org/) -->

<svg
   version="1.1"
   id="svg1"
   width="768"
   height="768"
   viewBox="0 0 768 768"
   xmlns="http://www.w3.org/2000/svg"
   xmlns:svg="http://www.w3.org/2000/svg">
  <defs
     id="defs1" />
  <g
     id="g1">
    <path
       style="fill:#ffffff"
       d="M 346,766.03146 C 316.352,762.72223 300.53681,759.58515 274.17356,751.78409 227.17175,737.87593 183.8544,715.12777 143.5,683.16071 127.63687,670.59461 96.87474,639.74157 84.015084,623.5 49.666313,580.11798 22.828636,525.89284 11.50776,477 3.1247546,440.7953 0.5,418.61983 0.5,384 0.5,349.38017 3.1247546,327.2047 11.50776,291 23.795387,237.93193 53.7892,179.80187 92.205876,134.60152 98.942138,126.67576 126.78048,98.845325 134.5,92.31941 222.59012,17.84993 335.13785,-13.349782 448,5.4130818 514.24635,16.426263 577.26132,45.4765 630,89.316053 c 15.64237,13.002877 38.73868,36.208937 49.76438,50.000857 3.15459,3.94604 6.44573,7.9658 7.31363,8.93281 0.86791,0.96701 3.34291,4.24489 5.5,7.28419 2.1571,3.0393 5.75535,8.10002 7.99612,11.24604 6.68351,9.38359 21.61556,34.90621 27.62617,47.22005 38.5365,78.94914 49.1581,163.67688 31.3404,250 -13.09536,63.44433 -45.84512,127.84345 -89.50366,176 -38.67265,42.65697 -83.94052,75.19163 -134.89066,96.94783 C 475.66774,762.34577 407.24185,772.86711 346,766.03146 Z M 214,588.55443 c 5.74688,-1.81847 8.16808,-2.75585 57.5,-22.26156 17.26779,-6.82764 30.30359,-11.94508 56,-21.98383 4.95,-1.9338 18.675,-7.3342 30.5,-12.00089 11.825,-4.66668 24.2,-9.53377 27.5,-10.81575 3.3,-1.28197 14.55,-5.69794 25,-9.81326 10.45,-4.11532 27.775,-10.9063 38.5,-15.09107 23.29945,-9.09116 27.05767,-10.94943 31.93967,-15.79267 5.5305,-5.4866 5.17862,-4.68388 30.37559,-69.2954 1.93038,-4.95 6.06352,-15.525 9.18474,-23.5 3.12122,-7.975 7.17122,-18.325 9,-23 1.82878,-4.675 5.87878,-15.025 9,-23 3.12122,-7.975 7.17122,-18.325 9,-23 1.82878,-4.675 5.87878,-15.025 9,-23 7.07276,-18.07151 10.793,-27.58168 17.99451,-46 3.11821,-7.975 7.40314,-18.89942 9.52208,-24.27648 5.20777,-13.21537 6.36744,-19.19441 5.07691,-26.17553 -1.22574,-6.63065 -2.15764,-8.50634 -6.75376,-13.59369 -4.0315,-4.4624 -12.22595,-7.95827 -18.62725,-7.94666 -4.4245,0.008 -12.80047,2.27956 -21.21249,5.75276 -5.20525,2.14918 -17.84784,7.13579 -42.5,16.76327 -7.975,3.1145 -21.925,8.58425 -31,12.15498 -9.075,3.57074 -23.925,9.39846 -33,12.9505 -9.075,3.55203 -17.4,6.85618 -18.5,7.34255 -1.1,0.48637 -4.925,2.00715 -8.5,3.3795 -19.35455,7.42972 -37.9641,14.71202 -74.5,29.15341 -6.05,2.39136 -16.4,6.44389 -23,9.00562 -25.38296,9.85217 -26.79066,11.27784 -37.01759,37.48977 -3.11155,7.975 -7.15363,18.325 -8.98241,23 -11.46225,29.30159 -23.77842,60.73214 -28.99715,74 -13.84718,35.20442 -19.62772,49.86817 -26.01759,66 -4.03035,10.175 -8.89894,22.55 -10.8191,27.5 -1.92017,4.95 -6.0513,15.525 -9.1803,23.5 -10.89001,27.75574 -11.68098,30.2113 -11.75714,36.5 -0.22391,18.48791 17.59233,31.64852 35.27128,26.05443 z M 369.21945,426.56272 C 357.46227,422.19523 348.01542,413.52884 342.66598,402.20302 339.65962,395.83794 339.5,394.89501 339.5,383.5 c 0,-11.38419 0.16176,-12.34242 3.15217,-18.67256 8.86058,-18.75619 30.86344,-29.27564 50.84783,-24.31006 9.39939,2.33549 13.22877,4.41123 20.41937,11.06846 11.65517,10.79063 16.73109,26.50807 13.5439,41.93827 -1.88105,9.10674 -3.18432,11.98946 -8.67667,19.19204 -4.65659,6.10658 -12.49305,11.60248 -20.44442,14.33815 -8.15959,2.80731 -20.81739,2.59365 -29.12273,-0.49158 z"
       id="path1" />
  </g>
</svg>
