<?xml version="1.0" encoding="UTF-8" standalone="no"?>
<!-- Created with Inkscape (http://www.inkscape.org/) -->

<svg
   version="1.1"
   id="svg1"
   width="638"
   height="641"
   viewBox="0 0 638 641"
   sodipodi:docname="InvitedPanelsIcon.svg"
   xml:space="preserve"
   inkscape:version="1.4 (86a8ad7, 2024-10-11)"
   xmlns:inkscape="http://www.inkscape.org/namespaces/inkscape"
   xmlns:sodipodi="http://sodipodi.sourceforge.net/DTD/sodipodi-0.dtd"
   xmlns="http://www.w3.org/2000/svg"
   xmlns:svg="http://www.w3.org/2000/svg"><defs
     id="defs1" /><sodipodi:namedview
     id="namedview1"
     pagecolor="#505050"
     bordercolor="#ffffff"
     borderopacity="1"
     inkscape:showpageshadow="0"
     inkscape:pageopacity="0"
     inkscape:pagecheckerboard="1"
     inkscape:deskcolor="#505050"
     inkscape:zoom="0.1575663"
     inkscape:cx="-523.58911"
     inkscape:cy="1269.3069"
     inkscape:window-width="1920"
     inkscape:window-height="1009"
     inkscape:window-x="-8"
     inkscape:window-y="-8"
     inkscape:window-maximized="1"
     inkscape:current-layer="g1" /><g
     inkscape:groupmode="layer"
     inkscape:label="Image"
     id="g1"><g
       id="g7"
       transform="translate(2,-2)"><path
         style="fill:#ffffff"
         d="M 95.782987,640.05897 C 62.014754,635.10442 30.092491,612.57713 13.606518,582.06769 7.5681616,570.89292 3.309251,558.42428 1.4084014,546.35576 -0.86638874,531.91309 -0.21296034,319.76427 2.1344293,310.63603 7.994611,287.84767 17.653804,270.46845 32.9739,255.14835 46.986529,241.13572 64.934974,230.78776 84.684231,225.33537 l 9.777349,-2.69934 219.27813,-0.2632 c 218.24099,-0.26196 219.32611,-0.25343 229.42253,1.80409 45.2125,9.21372 79.97928,43.96584 88.99664,88.95911 1.98528,9.90583 1.89296,227.55596 -0.10075,237.5 -3.16609,15.79159 -11.64801,33.89314 -22.40115,47.80705 -16.71103,21.62304 -44.51309,37.63994 -72.30977,41.658 -8.47775,1.22548 -433.20093,1.18497 -441.564223,-0.0421 z M 302.84868,511.65837 c 3.25881,-1.67599 21.96836,-19.78696 63.73654,-61.69737 52.02907,-52.20624 59.3488,-59.92495 61,-64.32497 6.68411,-17.81138 -5.55582,-36.40917 -24.00762,-36.47804 -12.27817,-0.0458 -9.44577,-2.34212 -63.37347,51.37834 l -49.25744,49.06815 -22.24256,-22.14039 c -13.97154,-13.90737 -23.85877,-22.94484 -26.58892,-24.30372 -5.99189,-2.98234 -16.35399,-2.96665 -22.3497,0.0339 -12.90501,6.45819 -18.64429,20.03529 -14.16682,33.51367 1.45031,4.36582 5.47251,8.78816 35.25,38.75686 32.22806,32.43499 37.35358,36.89044 44.61289,38.78045 4.5807,1.19262 12.25978,0.0501 17.3871,-2.58683 z M 91.294035,171.28956 C 64.783857,162.10475 62.536728,124.82209 87.747141,112.44218 l 5.714439,-2.80615 h 224 224 l 5.36735,2.9728 c 11.78651,6.52816 17.79036,17.48784 16.91573,30.87869 -0.76734,11.74824 -7.07759,21.19031 -17.62254,26.36873 l -5.66054,2.77978 -222,0.22195 C 107.38938,173.069 96.207211,172.99179 91.294035,171.28956 Z M 138.30533,65.102791 c -9.60789,-1.919747 -17.77132,-8.627512 -22.47429,-18.466758 -7.47768,-15.644325 -0.29161,-34.723728 15.945,-42.3348354 l 5.68554,-2.6651647 h 179.52097 179.52097 l 6.70288,3.2997874 c 12.02887,5.9217447 18.2535,16.6395297 17.53955,30.2002127 -0.66546,12.639619 -7.29289,22.48519 -18.78437,27.905673 l -5.5,2.594327 -177,0.148609 c -97.35,0.08174 -178.87031,-0.225098 -181.15625,-0.681851 z"
         id="path1" /><rect
         style="fill:#ffffff;fill-opacity:1;fill-rule:evenodd;stroke:#000000;stroke-width:0;stroke-linecap:square;stroke-linejoin:round;stroke-miterlimit:5.2;stroke-opacity:0.898039;paint-order:fill markers stroke"
         id="rect2"
         width="274.87027"
         height="197.45782"
         x="183.99478"
         y="346.6731"
         ry="29.272207" /></g><path
       style="fill:#000000;stroke-width:0.38506"
       d="m 314.5036,552.65098 c -6.32171,-1.66783 -11.29563,-5.64817 -14.27037,-11.41975 -2.34253,-4.54496 -2.2753,-3.12102 -2.28154,-48.32903 l -0.005,-41.29772 h -41.18251 c -28.95082,0 -41.78856,-0.12822 -43.22301,-0.43169 -6.33502,-1.34025 -12.10332,-5.83679 -14.9231,-11.63293 -3.09102,-6.35372 -3.09102,-12.64378 0,-18.99751 2.81978,-5.79613 8.58808,-10.29268 14.9231,-11.63292 1.43445,-0.30348 14.27219,-0.4317 43.22301,-0.4317 h 41.18251 l 0.005,-41.29771 c 0.007,-44.9076 -0.045,-43.76807 2.15972,-48.13992 6.76504,-13.41518 24.08318,-16.28963 34.62569,-5.74713 2.83375,2.83377 5.31107,7.33348 5.953,10.81284 0.23817,1.29101 0.38265,17.61048 0.38265,43.22303 v 41.14889 h 41.1489 c 25.61254,0 41.93201,0.14448 43.22301,0.38266 5.76901,1.06435 11.99467,5.81219 14.69541,11.20707 3.46245,6.91645 3.46533,13.02472 0.01,19.92875 -2.72763,5.44912 -8.88891,10.15261 -14.70481,11.22561 -1.291,0.23819 -17.61047,0.38266 -43.22301,0.38266 h -41.14889 v 41.1489 c 0,25.61254 -0.14449,41.93201 -0.38266,43.22302 -0.21047,1.14077 -1.08939,3.512 -1.95314,5.26941 -4.365,8.881 -14.93862,13.85736 -24.23336,11.40517 z"
       id="path1-8" /></g></svg>
