<?xml version="1.0" encoding="UTF-8" standalone="no"?>
<!-- Created with Inkscape (http://www.inkscape.org/) -->

<svg
   version="1.1"
   id="svg1"
   width="580"
   height="770"
   viewBox="0 0 580 770"
   sodipodi:docname="LockIcon.svg"
   inkscape:version="1.4 (86a8ad7, 2024-10-11)"
   xmlns:inkscape="http://www.inkscape.org/namespaces/inkscape"
   xmlns:sodipodi="http://sodipodi.sourceforge.net/DTD/sodipodi-0.dtd"
   xmlns="http://www.w3.org/2000/svg"
   xmlns:svg="http://www.w3.org/2000/svg">
  <defs
     id="defs1" />
  <sodipodi:namedview
     id="namedview1"
     pagecolor="#505050"
     bordercolor="#ffffff"
     borderopacity="1"
     inkscape:showpageshadow="0"
     inkscape:pageopacity="0"
     inkscape:pagecheckerboard="1"
     inkscape:deskcolor="#505050"
     inkscape:zoom="0.37100148"
     inkscape:cx="101.07776"
     inkscape:cy="-70.080583"
     inkscape:window-width="1920"
     inkscape:window-height="1009"
     inkscape:window-x="-8"
     inkscape:window-y="-8"
     inkscape:window-maximized="1"
     inkscape:current-layer="g1" />
  <g
     inkscape:groupmode="layer"
     inkscape:label="Image"
     id="g1">
    <path
       style="fill:#ffffff"
       d="M 58.5,767.05274 C 49.806516,764.81725 44.654184,762.90632 39.504995,760.00778 22.153897,750.24064 10.379936,735.32745 4.3660952,715.5 2.6410703,709.81264 2.5300616,700.30305 2.2357089,533 2.0164391,408.37223 2.2469699,354.61548 3.0201111,350.08776 7.1798441,325.72725 22.062703,305.99442 44,295.7535 c 10.463277,-4.88454 16.343257,-5.94985 35.75,-6.47703 L 98,288.78071 V 236.35094 C 98,182.7412 98.51304,172.52804 102.11164,154.5 115.42859,87.785515 165.34132,31.890735 230.5,10.724273 287.28802,-7.7230237 347.02798,0.52258704 396.62557,33.653763 405.75209,39.750277 412.51122,45.093064 422.36547,54 c 6.84517,6.187124 21.83824,24.202489 27.86738,33.484873 C 462.77311,106.79167 472.43708,129.55408 477.41101,151.5 481.38156,169.01883 482,180.33132 482,235.44157 v 53.33914 l 18.25,0.49576 c 19.4125,0.52733 25.29763,1.59419 35.75,6.48078 20.19441,9.4411 34.70592,27.32747 39.95146,49.24275 2.00602,8.38089 2.03453,10.95926 2.03453,184 0,170.40748 -0.0565,175.73543 -1.94529,183.61362 -6.73821,28.10444 -26.32264,47.68887 -54.42708,54.42708 -7.91712,1.89818 -13.53865,1.94367 -232.11362,1.87868 -212.3211,-0.0631 -224.364966,-0.16046 -231,-1.86664 z M 303.41459,638.1408 c 5.74423,-2.54094 12.51836,-9.32767 15.63781,-15.66688 2.44642,-4.97152 2.44784,-4.99353 2.9476,-45.61163 l 0.5,-40.6377 6.21588,-4.67141 c 30.67793,-23.05533 33.68827,-68.30497 6.36209,-95.63115 -7.15385,-7.15385 -16.7129,-13.02229 -26.40376,-16.20965 -9.03286,-2.97093 -28.58914,-2.89219 -37.60959,0.15144 -20.27043,6.83953 -35.39305,21.96549 -42.1915,42.2008 -3.14764,9.36883 -3.22171,27.64385 -0.15173,37.43538 3.95635,12.61856 12.40697,24.49771 22.91694,32.21467 l 6.36167,4.67107 0.0108,38.55713 c 0.0118,42.17737 0.23836,44.1986 5.87077,52.38502 4.26409,6.19766 10.97544,10.88266 18.23933,12.73238 5.13058,1.30647 16.27115,0.30223 21.29367,-1.91947 z M 417.98206,236.25 c -0.0184,-54.12103 -0.47635,-62.19929 -4.3225,-76.25 -7.02843,-25.67611 -21.26658,-47.83536 -41.99336,-65.355466 -31.26481,-26.427793 -74.71375,-35.95932 -115.06684,-25.242567 -32.67645,8.678031 -63.22923,32.998633 -79.22229,63.062463 -7.82249,14.70475 -11.31858,25.2492 -13.93722,42.03557 -1.07184,6.87092 -1.40822,21.47878 -1.42191,61.75 L 162,289 h 128 128 z"
       id="path1" />
  </g>
</svg>
