<?xml version="1.0" encoding="UTF-8" standalone="no"?>
<!-- Created with Inkscape (http://www.inkscape.org/) -->

<svg
   version="1.1"
   id="svg1"
   width="720"
   height="618"
   viewBox="0 0 720 618"
   xmlns="http://www.w3.org/2000/svg"
   xmlns:svg="http://www.w3.org/2000/svg">
  <defs
     id="defs1" />
  <g
     id="g1">
    <path
       style="fill:#ffffff"
       d="m 350,614.99739 c -16.49638,-2.87801 -32.18165,-16.40345 -38.08914,-32.84434 -3.34704,-9.31499 -3.31541,-25.78832 0.0665,-34.65305 5.2618,-13.79219 17.26481,-25.69012 30.86956,-30.5993 L 349.5,514.5 h 164 164 l 6.5,2.38947 c 21.04482,7.73632 33.97835,26.04912 33.97835,48.11053 0,21.79668 -12.45039,39.68441 -33.47835,48.09902 l -6,2.40098 -162,0.14123 c -89.1,0.0777 -164.025,-0.21205 -166.5,-0.64384 z M 44,359.33483 C 38.637432,358.47227 29.243154,354.54695 23.942415,350.95393 9.9224009,341.45069 2.0216486,326.32952 2.0216486,309 2.0216486,286.93859 14.955177,268.62579 36,260.88947 L 42.5,258.5 H 360 677.5 l 6.5,2.38947 c 21.04482,7.73632 33.97835,26.04912 33.97835,48.11053 0,21.79668 -12.45039,39.68441 -33.47835,48.09902 l -6,2.40098 -316,0.11847 C 188.7,359.68363 45.375,359.55599 44,359.33483 Z m 0,-256 C 38.637432,102.47227 29.243154,98.546953 23.942415,94.953931 9.9224009,85.450688 2.0216486,70.329519 2.0216486,53 2.0216486,30.938594 14.955177,12.625791 36,4.8894742 L 42.5,2.5 H 360 677.5 L 684,4.8894742 C 705.04482,12.625791 717.97835,30.938594 717.97835,53 c 0,21.796681 -12.45039,39.684411 -33.47835,48.09902 l -6,2.40098 -316,0.11847 C 188.7,103.68363 45.375,103.55599 44,103.33483 Z"
       id="path1" />
  </g>
</svg>
