<?xml version="1.0" encoding="UTF-8" standalone="no"?>
<!-- Created with Inkscape (http://www.inkscape.org/) -->

<svg
   version="1.1"
   id="svg1"
   width="640"
   height="641"
   viewBox="0 0 640 641"
   sodipodi:docname="MessagesIcon.svg"
   inkscape:version="1.4 (86a8ad7, 2024-10-11)"
   xmlns:inkscape="http://www.inkscape.org/namespaces/inkscape"
   xmlns:sodipodi="http://sodipodi.sourceforge.net/DTD/sodipodi-0.dtd"
   xmlns="http://www.w3.org/2000/svg"
   xmlns:svg="http://www.w3.org/2000/svg">
  <defs
     id="defs1" />
  <sodipodi:namedview
     id="namedview1"
     pagecolor="#505050"
     bordercolor="#ffffff"
     borderopacity="1"
     inkscape:showpageshadow="0"
     inkscape:pageopacity="0"
     inkscape:pagecheckerboard="1"
     inkscape:deskcolor="#505050"
     inkscape:zoom="0.63026521"
     inkscape:cx="-15.07302"
     inkscape:cy="136.45049"
     inkscape:window-width="1920"
     inkscape:window-height="1009"
     inkscape:window-x="-8"
     inkscape:window-y="-8"
     inkscape:window-maximized="1"
     inkscape:current-layer="g1" />
  <g
     inkscape:groupmode="layer"
     inkscape:label="Image"
     id="g1">
    <path
       style="fill:#ffffff"
       d="m 411.23015,639.5116 c -2.89842,-0.81442 -6.49842,-2.11749 -8,-2.8957 -4.64949,-2.40964 -11.91686,-9.40559 -14.69505,-14.14623 -1.45844,-2.48862 -19.51066,-55.09971 -40.11605,-116.91352 l -37.46436,-112.38875 2.95327,-4.3337 c 1.6243,-2.38354 24.99982,-35.8337 51.9456,-74.3337 26.94578,-38.5 53.6395,-76.64884 59.31938,-84.77521 5.67988,-8.12636 12.15718,-17.35136 14.394,-20.5 9.96987,-14.03399 16.36463,-23.62655 15.99606,-23.99513 -0.33557,-0.33556 -18.05219,11.69899 -49.61515,33.70261 -3.60368,2.51225 -12.72947,8.84273 -20.27953,14.06773 -7.55006,5.225 -17.92087,12.425 -23.04625,16 -5.12537,3.575 -16.15027,11.225 -24.49976,17 -8.3495,5.775 -23.89164,16.575 -34.53808,24 -10.64645,7.425 -23.92591,16.65 -29.50992,20.5 -5.58401,3.85 -13.8476,9.58661 -18.36353,12.74802 -4.51593,3.16141 -8.75154,5.74891 -9.41247,5.75 -2.80304,0.005 -224.166046,-74.42224 -227.957046,-76.64391 C 12.530765,248.94893 6.3045454,241.88822 3.1953377,235.17819 0.98173857,230.40099 0.55915086,228.07192 0.53212409,220.5 0.50328789,212.42115 0.8260504,210.81172 3.685652,204.77523 7.2692002,197.21053 13.812629,190.23688 20.249979,187.12184 23.938657,185.33688 70.241293,170.19447 154,143.38138 c 12.925,-4.13759 25.3,-8.14158 27.5,-8.89774 2.2,-0.75617 15.475,-5.03462 29.5,-9.50767 14.025,-4.47304 32.475,-10.39193 41,-13.15308 8.525,-2.76115 22.3625,-7.22586 30.75,-9.92158 8.3875,-2.695721 22.1125,-7.119727 30.5,-9.831125 31.42259,-10.157874 110.14067,-35.496257 134.25,-43.213429 13.75,-4.401247 26.8,-8.623528 29,-9.382848 2.2,-0.75932 15.475,-5.0379 29.5,-9.507956 33.09164,-10.546985 51.78306,-16.597616 71.5,-23.1453814 14.56286,-4.836156 16.80839,-5.3137348 25,-5.316992 8.02837,-0.00319 9.71886,0.3370004 15.65863,3.1511241 C 626.43015,8.573558 632.37812,14.554568 636.40259,23 c 2.71048,5.68801 3.09741,7.561832 3.09741,15 0,7.846149 -0.56364,10.230782 -7.32726,31 -10.19737,31.31331 -16.54139,50.91248 -22.33449,69 -2.7304,8.525 -5.79774,17.975 -6.81631,21 -1.01857,3.025 -4.63399,14.275 -8.03425,25 -3.40027,10.725 -7.87924,24.675 -9.95327,31 -2.07404,6.325 -6.55451,20.275 -9.95661,31 -3.4021,10.725 -7.03622,21.975 -8.07582,25 -1.0396,3.025 -5.54049,16.975 -10.00199,31 -4.4615,14.025 -8.9616,27.975 -10.00024,31 -1.03864,3.025 -5.32391,16.3 -9.52284,29.5 -4.19892,13.2 -9.89338,30.975 -12.65435,39.5 -2.76098,8.525 -7.25392,22.475 -9.98432,31 -2.7304,8.525 -5.79774,17.975 -6.81631,21 -1.01857,3.025 -4.63399,14.275 -8.03425,25 -3.40027,10.725 -7.87924,24.675 -9.95327,31 -2.07404,6.325 -6.55451,20.275 -9.95661,31 -3.4021,10.725 -7.0369,21.975 -8.07734,25 -1.04044,3.025 -5.2918,16.10038 -9.44747,29.0564 -4.1974,13.08613 -8.81219,25.53757 -10.38252,28.01373 -8.59352,13.55057 -26.14444,20.59895 -40.94033,16.44147 z"
       id="path1" />
  </g>
</svg>
