<?xml version="1.0" encoding="UTF-8" standalone="no"?>
<!-- Created with Inkscape (http://www.inkscape.org/) -->

<svg
   version="1.1"
   id="svg1"
   width="538"
   height="642"
   viewBox="0 0 538 642"
   sodipodi:docname="NotificationIcon.svg"
   inkscape:version="1.4 (86a8ad7, 2024-10-11)"
   xmlns:inkscape="http://www.inkscape.org/namespaces/inkscape"
   xmlns:sodipodi="http://sodipodi.sourceforge.net/DTD/sodipodi-0.dtd"
   xmlns="http://www.w3.org/2000/svg"
   xmlns:svg="http://www.w3.org/2000/svg">
  <defs
     id="defs1" />
  <sodipodi:namedview
     id="namedview1"
     pagecolor="#505050"
     bordercolor="#ffffff"
     borderopacity="1"
     inkscape:showpageshadow="0"
     inkscape:pageopacity="0"
     inkscape:pagecheckerboard="1"
     inkscape:deskcolor="#505050"
     inkscape:zoom="0.88994125"
     inkscape:cx="339.34825"
     inkscape:cy="340.47192"
     inkscape:window-width="1920"
     inkscape:window-height="1009"
     inkscape:window-x="-8"
     inkscape:window-y="-8"
     inkscape:window-maximized="1"
     inkscape:current-layer="g1" />
  <g
     inkscape:groupmode="layer"
     inkscape:label="Image"
     id="g1">
    <path
       style="fill:#ffffff"
       d="m 253.58331,639.48046 c -37.37213,-6.05935 -69.81967,-33.7247 -80.42617,-68.57278 -1.1718,-3.85 -2.37311,-7.7875 -2.66958,-8.75 -0.51082,-1.65843 4.59217,-1.75 97.52836,-1.75 53.93707,0 98.06739,0.1457 98.06739,0.32377 0,0.17808 -1.09323,3.97623 -2.4294,8.44034 -6.57952,21.98207 -21.3483,41.72472 -40.77315,54.50488 -16.78107,11.04074 -31.41284,15.67366 -51.29745,16.24255 -7.15,0.20455 -15.25,0.007 -18,-0.43876 z M 34.583311,531.47837 C 22.150409,527.79732 12.144053,519.07759 5.8341399,506.4258 c -3.146761,-6.30946 -3.250829,-6.91828 -3.250829,-19.01812 0,-12.36157 0.04116,-12.5862 3.7164711,-20.28319 3.234223,-6.77324 5.29086,-9.30356 15.84958,-19.5 19.758175,-19.08025 30.284591,-32.81495 39.912611,-52.07732 8.943016,-17.89192 14.495706,-35.45104 17.594773,-55.63949 1.350667,-8.79873 1.841753,-22.50662 2.454015,-68.5 0.793139,-59.58096 0.821312,-59.98388 5.454091,-78 C 104.86304,126.13784 160.79642,72.763374 229.08331,58.363603 c 5.775,-1.217784 11.0625,-2.366927 11.75,-2.553652 0.93967,-0.255213 1.25,-4.699933 1.25,-17.903003 0,-19.674289 0.46605,-21.68872 6.58462,-28.461247 4.95799,-5.4879107 10.47233,-8.1926263 17.92221,-8.7906314 7.86832,-0.6315928 14.82826,2.2227317 20.54648,8.4262694 6.53636,7.091119 7.17438,9.533286 7.72683,29.576343 0.4755,17.251142 0.5487,17.750036 2.60455,17.751295 3.44886,0.0021 22.42436,4.809473 32.11531,8.136275 46.48888,15.959151 86.42473,52.019578 107.3012,96.888568 8.28161,17.79936 13.64764,35.66831 16.20831,53.97386 0.70511,5.04065 1.52322,31.69796 2.01018,65.5 0.87136,60.48338 1.1414,64.00366 6.25654,81.56067 3.909,13.41709 7.20117,21.93293 12.79688,33.10159 9.71399,19.38849 20.04165,32.90242 39.61558,51.83774 17.25616,16.69317 20.82645,24.2118 20.15178,42.43746 -0.33358,9.01164 -0.74245,10.91676 -3.56696,16.62044 -6.33409,12.79075 -17.3219,22.10296 -29.91785,25.3555 -5.52706,1.4272 -28.93534,1.57892 -233,1.51017 -214.292008,-0.0722 -227.187949,-0.17482 -232.855659,-1.85288 z"
       id="path1" />
  </g>
</svg>
