<?xml version="1.0" encoding="UTF-8" standalone="no"?>
<!-- Created with Inkscape (http://www.inkscape.org/) -->

<svg
   version="1.1"
   id="svg1"
   width="385.33334"
   height="109.33333"
   viewBox="0 0 385.33334 109.33333"
   sodipodi:docname="PanelitLogo.svg"
   inkscape:version="1.4 (86a8ad7, 2024-10-11)"
   xmlns:inkscape="http://www.inkscape.org/namespaces/inkscape"
   xmlns:sodipodi="http://sodipodi.sourceforge.net/DTD/sodipodi-0.dtd"
   xmlns="http://www.w3.org/2000/svg"
   xmlns:svg="http://www.w3.org/2000/svg">
  <defs
     id="defs1">
    <linearGradient
       id="swatch5"
       inkscape:swatch="solid">
      <stop
         style="stop-color:#ff0000;stop-opacity:1;"
         offset="0"
         id="stop5" />
    </linearGradient>
    <linearGradient
       id="swatch4"
       inkscape:swatch="solid">
      <stop
         style="stop-color:#59ffff;stop-opacity:1;"
         offset="0"
         id="stop4" />
    </linearGradient>
  </defs>
  <sodipodi:namedview
     id="namedview1"
     pagecolor="#505050"
     bordercolor="#ffffff"
     borderopacity="1"
     inkscape:showpageshadow="0"
     inkscape:pageopacity="0"
     inkscape:pagecheckerboard="1"
     inkscape:deskcolor="#505050"
     inkscape:zoom="4.5934255"
     inkscape:cx="112.22562"
     inkscape:cy="76.413561"
     inkscape:window-width="1920"
     inkscape:window-height="1009"
     inkscape:window-x="-8"
     inkscape:window-y="-8"
     inkscape:window-maximized="1"
     inkscape:current-layer="g95" />
  <g
     inkscape:groupmode="layer"
     inkscape:label="Image"
     id="g1">
    <g
       id="g95"
       transform="translate(-2.1480971,-0.61969354)">
      <path
         d="m 72.850051,18.279275 c 1.32151,1.472335 2.46412,3.306971 3.28515,5.648437 2.93899,8.381545 -5.44336,28.083985 -5.44336,28.083985 0,0 -6.43246,19.125282 -17.089841,22.531249 -10.558569,3.374388 -16.505859,2.3125 -16.505859,2.3125 0,0 -4.612859,-0.152207 -8.09375,-2.529297 -0.571236,-0.390095 -2.232848,6.803871 -3.539063,10.28711 -0.997652,2.660405 -2.306651,6.828496 -3.771484,9.652343 -3.193075,10.623448 2.48317,12.436328 5.05664,13.621108 2.716836,1.25078 8.69497,0.79606 10.759766,-1.5918 2.021869,-2.33823 3.858027,-8.699261 5.162109,-12.337901 1.30408,-3.63864 2.96095,-11.151639 3.53125,-10.744141 3.4752,2.483142 8.082032,2.642578 8.082032,2.642578 0,0 5.937195,1.108918 16.47852,-2.416015 10.63998,-3.55792 17.0625,-23.537109 17.0625,-23.537109 0,0 8.36778,-20.580458 5.43359,-29.335937 -2.93418,-8.755479 -9.8904,-10.91566 -14.99805,-12.052735 -1.5741,-0.350427 -3.49765,-0.361777 -5.41015,-0.234375 z"
         style="fill:#0330f9;stroke:#0330f9;stroke-width:2.75732;stroke-linecap:round;stroke-linejoin:round;stroke-miterlimit:5.2;paint-order:fill markers stroke;stroke-opacity:1"
         id="path16" />
      <g
         id="g93"
         transform="translate(2.0883767,-115.76216)">
        <path
           d="m 341.89162,201.84043 a 9.3038626,9.3966818 0 0 0 -9.30273,9.39649 9.3038626,9.3966818 0 0 0 9.30273,9.39648 9.3038626,9.3966818 0 0 0 9.30469,-9.39648 9.3038626,9.3966818 0 0 0 -9.30469,-9.39649 z"
           style="fill:#0330f9;fill-rule:evenodd;stroke:#0330f9;stroke-width:3.16568;stroke-miterlimit:0;paint-order:fill markers stroke"
           id="path93" />
        <path
           d="m 136.80764,176.35996 c -0.34634,0.89532 -0.69103,1.79912 -1.11524,2.93555 0.46555,-1.2343 0.72524,-1.90835 1.11524,-2.93555 z"
           style="fill:#0330f9;stroke:#0330f9;stroke-width:2.9;stroke-linecap:square"
           id="path91" />
        <path
           d="m 288.09865,175.9791 -1.38867,4.22071 c 0.43053,-1.16471 1.53906,-4.22071 1.53906,-4.22071 z"
           style="fill:#0330f9;stroke:#0330f9"
           id="path87" />
        <path
           d="m 301.03615,139.26621 c -0.14641,1.63178 -0.57633,3.57507 -1.55273,5.97852 -4.24519,10.44972 -4.72656,11.67187 -4.72656,11.67187 h 4.58593 c 0,0 4.60178,0.29373 4.48633,5.02735 -0.11545,4.73362 -0.88426,9.12029 -6.96484,9.19726 -6.08059,0.077 -7.19922,0.0859 -7.19922,0.0859 l -1.56641,4.75196 h 0.15039 c 0,0 -1.10853,3.05599 -1.53906,4.2207 l -4.50976,13.6875 c 0,0 -2.77035,5.38628 1.07812,5.61719 3.84847,0.23091 8.77539,-4.23242 8.77539,-4.23242 0,0 3.7706,-4.00298 4.23242,-6.54297 0.46181,-2.53999 2.23291,-9.00435 9.16016,-8.77344 0.14842,0.005 0.25723,0.0311 0.40039,0.0391 l 1.17969,-3.58399 c 0,0 1.11863,-0.007 7.19922,-0.084 6.08058,-0.077 6.84939,-4.46559 6.96484,-9.19921 0.11545,-4.73363 -4.48633,-5.02735 -4.48633,-5.02735 l -4.58593,0.002 c 0,0 0.48137,-1.22411 4.72656,-11.67383 4.2452,-10.44971 -1.06446,-12.98828 -1.06446,-12.98828 0,0 -3.11238,-1.94331 -7.23632,-2.09961 -4.2913,-0.16264 -6.61024,2.54932 -7.50782,3.92578 z"
           style="fill:#0330f9;stroke:#0330f9;stroke-width:2.9;stroke-linecap:square"
           id="path85" />
        <path
           d="m 276.98342,152.69785 6.07227,-17.34765 a 9.3531733,9.4464855 0 0 0 -1.22461,-0.10742 9.3531733,9.4464855 0 0 0 -9.35352,9.44531 9.3531733,9.4464855 0 0 0 4.50586,8.00976 z"
           style="fill:#0330f9;fill-rule:evenodd;stroke:#0330f9;stroke-width:3.18247;stroke-miterlimit:0;paint-order:fill markers stroke"
           id="path83" />
        <path
           d="m 264.60451,165.19981 c -0.0605,0.1686 -0.0879,0.24482 -0.12109,0.35351 -0.18402,1.81516 -0.55715,3.82907 -1.29492,6.24219 -3.69454,12.0842 -8.38867,22.9375 -8.38867,22.9375 0,0 -2.23212,4.38656 0,5.15625 2.23211,0.76969 6.0039,-5.54101 6.0039,-5.54101 0,0 3.31006,-4.84902 5.61914,-11.31446 2.30909,-6.46543 4.46289,-12.23828 4.46289,-12.23828 l -3.33984,0.0215 c 0,0 -2.70268,-0.74722 -2.94141,-5.61719 z"
           style="fill:#0330f9;stroke:#0330f9;stroke-width:2.9;stroke-linecap:square"
           id="path82" />
        <path
           d="m 235.47365,172.65098 c -3.38746,9.01419 -5.45051,15.38465 -6.54882,18.95117 0.98624,-2.18177 1.95658,-4.70952 2.90429,-7.69531 1.22964,-3.87402 2.43613,-7.55259 3.64453,-11.25586 z"
           style="fill:#0330f9;stroke:#0330f9"
           id="path75" />
        <path
           d="m 246.76858,139.48692 c -0.21349,3.76714 -1.63235,9.18616 -4.97657,17.22265 -2.46837,5.93176 -4.56013,11.26268 -6.31836,15.94141 -1.2084,3.70327 -2.41489,7.38184 -3.64453,11.25586 -0.94771,2.98579 -1.91805,5.51354 -2.90429,7.69531 -0.62472,2.02864 -0.98828,3.28516 -0.98829,3.28516 l -0.46093,1.76953 c 0,0 -1.76991,4.85046 1.84765,2.69531 3.61757,-2.15514 5.77287,-4.46472 8.4668,-12.39258 2.69393,-7.92785 9.1582,-26.09375 9.1582,-26.09375 0,0 1.84886,-7.54126 9.08399,-6.38672 2.099,0.33495 3.84429,0.96079 5.24414,1.91211 1.07057,-2.98752 1.81617,-5.53347 2.27539,-7.6875 a 9.3531733,9.4464855 0 0 1 -8.43555,-9.19921 9.3531733,9.4464855 0 0 1 1.09375,-4.12891 c -0.0451,-0.0111 -0.0897,-0.024 -0.13476,-0.0352 -5.45221,-1.34623 -8.57079,2.98586 -9.30664,4.14648 z"
           style="fill:#0330f9;stroke:#0330f9;stroke-width:2.9;stroke-linecap:square"
           id="path73" />
        <path
           d="m 203.45217,197.18223 c -1.84333,-0.30114 -3.2249,-0.64806 -3.64258,-0.80469 -0.65806,-0.24677 -0.66074,0.93452 -0.0859,2.48828 1.24426,-0.35618 2.48956,-0.87835 3.72852,-1.68359 z"
           style="fill:#0330f9;stroke:#0330f9"
           id="path72" />
        <path
           d="m 182.876,191.30918 c -0.11424,-0.0349 -0.35932,-0.0915 -0.42774,-0.11718 -0.56025,-0.2101 -0.61063,0.64748 -0.27539,1.85156 0.24633,-0.58183 0.47067,-1.14882 0.70313,-1.73438 z"
           style="fill:#0330f9;stroke:#0330f9"
           id="path67" />
        <path
           d="m 212.83889,178.22129 c -0.17662,0.62232 -0.39002,1.24145 -0.62305,1.86133 0.42706,-0.69285 0.59406,-1.3104 0.62305,-1.86133 z"
           style="fill:#0330f9;stroke:#0330f9;stroke-width:2.9"
           id="path65" />
        <path
           d="m 208.26272,160.40098 c 5.08446,4.45048 6.47222,11.13947 4.57617,17.82031 -0.029,0.55093 -0.19599,1.16848 -0.62305,1.86133 -0.46121,1.22689 -0.99577,2.44883 -1.67383,3.64453 -6.89304,12.15548 -24.69589,8.49057 -27.66601,7.58203 -0.23246,0.58556 -0.4568,1.15255 -0.70313,1.73438 0.77012,2.76599 3.81803,7.56733 9.12696,6.92383 2.73943,-0.33206 5.57842,-0.28703 8.42382,-1.10157 -0.5748,-1.55376 -0.57212,-2.73505 0.0859,-2.48828 0.41768,0.15663 1.79925,0.50355 3.64258,0.80469 3.80882,-2.47547 7.55619,-7.5599 11.01562,-18.45898 1.81469,-5.71724 3.6435,-11.33912 5.3711,-16.57813 -2.66306,-1.01241 -5.81286,-1.64926 -9.48438,-1.79102 -0.73521,-0.0284 -1.40114,0.0234 -2.09179,0.0469 z"
           style="fill:#0330f9;stroke:#0330f9;stroke-width:2.9;stroke-linecap:square"
           id="path63" />
        <path
           d="m 160.09279,161.3209 c 5.46187,7.97018 1.11133,17.01758 1.11133,17.01758 l -6.84961,19.16602 c 0,0 -0.84613,5.7727 4.84961,0 5.69574,-5.77271 10.54492,-24.0918 10.54492,-24.0918 0,0 0.93378,-5.2005 4.65235,-10.05274 -4.45098,-3.08724 -10.47442,-2.7147 -14.3086,-2.03906 z"
           style="fill:#0330f9;stroke:#0330f9;stroke-width:2.9;stroke-linecap:square"
           id="path61" />
        <path
           d="m 115.0303,161.81114 c 0.2401,2.52211 -0.322,5.96247 -2.16211,10.75586 -6.23453,16.24055 -9.16016,25.86132 -9.16016,25.86132 0,0 2.01926,9.34804 12.31641,-18.24218 4.42372,-11.85295 6.54585,-17.3629 7.66992,-20.19532 -0.4415,-0.0583 -0.88976,-0.12419 -1.31446,-0.17382 -5.66586,-0.66225 -7.21979,1.77331 -7.3496,1.99414 z"
           style="fill:#0330f9;stroke:#0330f9;stroke-width:2.9;stroke-linecap:square"
           id="path59" />
        <path
           d="m 143.27248,212.30918 c -6.33856,-3.40007 -10.74331,-9.56117 -7.04492,-18.66211 5.55141,-13.66083 7.29297,-20.46484 7.29297,-20.46484 0,0 0.86743,-2.42424 -0.28711,-3.23242 -1.15454,-0.80818 -4.27168,1.69339 -5.19531,3.38672 -0.18745,0.34364 -0.69945,1.65072 -1.23047,3.02343 -0.39,1.0272 -0.64969,1.70125 -1.11524,2.93555 -2.13026,5.70698 -4.85351,13.31641 -4.85351,13.31641 l -3.375,10.34179 -2.23047,5.98633 c 0,0 -3.42981,6.58568 -8.32812,6.53125 -4.89831,-0.0544 -6.33985,-0.8164 -6.33985,-0.8164 l -0.53125,-0.49024 c 0,0 -1.6684,1.38911 -7.9414,1.1582 -6.273022,-0.2309 -7.521493,-0.50781 -7.521493,-0.50781 0,0 -1.661685,-0.35922 -3.023438,-0.99414 -1.462664,-0.68197 -2.945312,-2.53906 -2.945312,-2.53906 0,0 -3.109113,2.26895 -7.378907,3.4082 0.05844,0.0691 5.373869,6.32679 13.802735,5.80078 6.008135,-0.37494 10.939455,-4.02539 10.939455,-4.02539 0,0 1.4807,1.85905 2.94336,2.54102 1.36175,0.63492 3.02344,0.99219 3.02344,0.99219 0,0 1.24847,0.2769 7.52148,0.50781 6.27301,0.23091 7.94336,-1.1582 7.94336,-1.1582 l 0.5293,0.49023 c 0,0 1.4435,0.76198 6.3418,0.81641 4.89831,0.0544 8.32617,-6.53125 8.32617,-6.53125 z"
           style="fill:#0330f9;stroke:#0330f9;stroke-width:2.9;stroke-linecap:square"
           id="path54" />
        <path
           d="m 187.30764,215.08067 c -11.69614,-1.22521 -17.00977,-5.48828 -17.00977,-5.48828 0,0 -5.01346,5.0196 -12.90234,5.75781 3.70789,3.02319 8.83518,4.74898 13.44726,5.19531 9.38458,0.90819 15.57539,-4.62335 16.46485,-5.46484 z"
           style="fill:#0330f9;stroke:#0330f9;stroke-width:2.9;stroke-linecap:square"
           id="path52" />
        <path
           d="m 227.88772,215.84434 c -0.94351,0.0543 -1.91414,0.0791 -2.94727,0.008 -9.47006,-0.65311 -13.66016,-5.71485 -13.66016,-5.71485 0,0 -7.07458,5.93215 -20.95312,5.22461 -0.75029,-0.0383 -1.39034,-0.1331 -2.0957,-0.19531 1.33272,0.95803 7.26382,4.7573 19.45703,5.37891 11.89886,0.60661 18.47339,-3.46948 20.19922,-4.70117 z"
           style="fill:#0330f9;stroke:#0330f9;stroke-width:2.9;stroke-linecap:square"
           id="path50" />
        <path
           d="m 331.36428,193.58653 c -0.14348,6.7e-4 -0.25412,0.036 -0.40234,0.0312 -7.19664,-0.23091 -8.19727,-3.73438 -8.19727,-3.73438 0,0 -0.81703,-1.6834 -0.17578,-4.72461 -6.72963,-0.0765 -8.48494,6.24526 -8.94141,8.75586 -0.46182,2.53999 -4.23242,6.54102 -4.23242,6.54102 0,0 -1.10541,0.96228 -2.60352,1.95898 -3.37728,4.46133 -5.07617,6.08985 -5.07617,6.08985 0,0 -6.36246,8.34912 -16.32226,7.85742 -8.36278,-0.41286 -9.23828,-0.73828 -9.23828,-0.73828 0,0 -3.51242,-0.64265 -5.76563,-2.02149 -1.4387,-0.8804 -2.46875,-1.95117 -2.46875,-1.95117 0,0 -6.31583,4.20065 -14.31641,4.0918 -8.00056,-0.10885 -13.38867,-4.46289 -13.38867,-4.46289 0,0 -4.18637,3.68992 -11.17773,4.45703 0.96215,1.00414 5.00449,4.73044 13.24609,5.29883 9.47005,0.6531 15.29297,-4.57227 15.29297,-4.57227 0,0 5.38811,4.35404 13.38867,4.46289 8.00057,0.10885 14.31836,-4.0918 14.31836,-4.0918 0,0 1.03005,1.07273 2.46875,1.95313 2.25321,1.37883 5.76367,2.01953 5.76367,2.01953 0,0 0.87746,0.32542 9.24024,0.73828 9.9598,0.4917 16.32031,-7.85742 16.32031,-7.85742 0,0 0.12909,-0.14495 0.13477,-0.15039 a 9.3038626,9.3966818 0 0 1 -4.00586,-7.48438 9.3038626,9.3966818 0 0 1 9.30468,-9.39648 9.3038626,9.3966818 0 0 1 5.49805,1.85547 c 0.80497,-1.88425 1.2063,-3.53862 1.33594,-4.92578 z"
           style="fill:#0330f9;stroke:#0330f9;stroke-width:2.9;stroke-linecap:square"
           id="path44" />
        <path
           d="m 360.9717,131.91465 c -0.12143,1.87898 -0.67383,3.30664 -0.67383,3.30664 l -10.28906,26.17383 -9.57617,27.20313 c -1.46367,4.15191 -0.30664,6.4707 -0.30664,6.4707 0,0 1.00062,3.50151 8.19726,3.73242 7.19664,0.23091 8.76368,-6.06641 8.76368,-6.06641 l 20.57226,-52.33007 c 0,0 3.64741,-8.95321 -5.49609,-11.81055 -5.95333,-1.86041 -9.45239,1.05126 -11.19141,3.32031 z"
           style="fill:#0330f9;stroke:#0330f9;stroke-width:2.9"
           id="path42" />
      </g>
      <g
         id="g94">
        <g
           id="use15"
           transform="translate(-1.804282,2.1018098)">
          <path
             style="fill:#ffffff;fill-opacity:1;stroke:#000000;stroke-width:2.7;stroke-linecap:round;stroke-linejoin:round;stroke-miterlimit:5.2;stroke-dasharray:none;stroke-opacity:1;paint-order:fill markers stroke"
             d="m 6.8588328,81.04134 c 0,0 12.1913372,-34.396988 12.7355932,-35.920905 0.544256,-1.523917 10.340866,-29.498682 10.340866,-29.498682 0,0 1.306215,-8.9258003 10.776272,-8.9258003 9.470057,0 8.254818,4.6533883 8.254818,4.6533883 0,0 8.834825,-2.1498102 13.950832,-1.061301 5.116008,1.088513 12.082486,3.156686 15.02147,11.53823 2.938983,8.381545 -5.442561,28.083617 -5.442561,28.083617 0,0 -6.432264,19.126237 -17.089644,22.532204 -10.558569,3.374388 -16.505768,2.312288 -16.505768,2.312288 0,0 -4.613718,-0.1529 -8.094609,-2.52999 -0.571236,-0.390095 -2.23145,6.803201 -3.537665,10.28644 -1.306215,3.483239 -3.145257,9.572005 -5.170433,11.810359 -2.068173,2.285876 -8.054991,2.72128 -10.776271,1.523917 C 8.6004524,94.647743 2.3959325,92.797272 6.8588328,81.04134 Z"
             id="path19"
             sodipodi:nodetypes="cscscsscscssssc" />
          <path
             style="fill:#0330f9;fill-opacity:1;stroke:#000000;stroke-width:2.9;stroke-linecap:butt;stroke-linejoin:miter;stroke-dasharray:none;stroke-opacity:1"
             d="m 41.677477,48.113844 5.170434,-14.803767 c 0,0 1.523917,-4.626178 4.95273,-6.367797 3.428814,-1.74162 5.71469,0.598682 5.71469,0.598682 0,0 2.649689,2.449612 0.81638,7.782863 -1.796049,5.224857 -6.367796,17.525047 -6.367796,17.525047 0,0 -3.156687,6.857628 -7.891715,5.007157 -4.735029,-1.850471 -3.97307,-5.224859 -2.394727,-9.742185 z"
             id="path20"
             sodipodi:nodetypes="ccscscssc" />
        </g>
        <g
           id="g36"
           style="fill:#ffffff;fill-opacity:1"
           transform="translate(0.03140175,0.48017812)">
          <ellipse
             style="fill:#ffffff;fill-opacity:1;fill-rule:evenodd;stroke:#000000;stroke-width:3.16568;stroke-linecap:butt;stroke-linejoin:miter;stroke-miterlimit:0;stroke-dasharray:none;stroke-dashoffset:0;stroke-opacity:1;paint-order:fill markers stroke"
             id="ellipse32"
             cx="327.57822"
             cy="88.057846"
             rx="9.3038626"
             ry="9.3966818" />
          <ellipse
             style="fill:#ffffff;fill-opacity:1;fill-rule:evenodd;stroke:#000000;stroke-width:3.18247;stroke-linecap:butt;stroke-linejoin:miter;stroke-miterlimit:0;stroke-dasharray:none;stroke-dashoffset:0;stroke-opacity:1;paint-order:fill markers stroke"
             id="ellipse33"
             cx="267.5166"
             cy="21.509649"
             rx="9.3531733"
             ry="9.4464855" />
          <path
             style="fill:#ffffff;fill-opacity:1;stroke:#000000;stroke-width:2.9;stroke-linecap:butt;stroke-linejoin:miter;stroke-dasharray:none;stroke-opacity:1"
             d="m 326.11828,65.419587 19.15781,-54.425613 c 0,0 3.42882,-8.4359702 12.57232,-5.5786254 9.1435,2.8573447 5.49699,11.8103584 5.49699,11.8103584 l -20.57289,52.330227 c 0,0 -1.56698,6.29745 -8.76362,6.066542 -7.19664,-0.230909 -8.19725,-3.733018 -8.19725,-3.733018 0,0 -1.15703,-2.317958 0.30664,-6.469871 z"
             id="path33" />
          <path
             style="fill:#ffffff;fill-opacity:1;stroke:#000000;stroke-width:2.9;stroke-linecap:square;stroke-linejoin:miter;stroke-dasharray:none;stroke-opacity:1"
             d="M 64.346453,71.58158 72.89006,49.183473 c 0,0 2.463023,-7.235128 7.081189,-9.544211 4.618166,-2.309083 5.85659,-3.306479 11.510388,-3.269598 5.653797,0.03688 9.179023,2.337027 9.179023,2.337027 0,0 1.47782,-2.761962 7.40443,-2.069237 5.92665,0.692725 14.08541,1.693328 7.85089,17.93388 -6.23453,16.240552 -9.15937,25.861732 -9.15937,25.861732 0,0 2.01796,9.348462 12.31511,-18.241758 9.06316,-24.283859 8.91912,-23.162332 8.91912,-23.162332 0,0 1.65488,-2.012022 5.4555,-2.636437 2.54832,-0.418673 4.16741,-0.139693 5.49817,0.399518 3.0046,1.217431 3.14961,2.196501 3.14961,2.196501 0,0 14.07688,-4.660187 20.46534,3.498573 6.38846,8.158761 1.69333,17.856911 1.69333,17.856911 l -6.85028,19.16539 c 0,0 -0.84667,5.772708 4.84907,0 5.69574,-5.772708 10.54481,-24.091435 10.54481,-24.091435 0,0 3.30969,-19.011452 23.24478,-18.241757 19.93508,0.769694 24.70719,15.932674 17.54903,28.555662 -7.15816,12.622989 -26.24658,8.158761 -28.09385,7.466036 -1.84726,-0.692725 1.23151,9.69815 8.85149,8.774516 7.61997,-0.923633 16.00964,1.308481 23.1678,-21.243565 7.15816,-22.552046 14.62419,-43.949551 14.62419,-43.949551 0,0 3.38666,-6.157555 9.62118,-4.618166 6.23453,1.539388 13.00784,2.69393 3.07878,26.554457 -9.92906,23.860526 -13.8545,38.176842 -13.8545,38.176842 l -0.46181,1.770297 c 0,0 -1.7703,4.849075 1.84726,2.693931 3.61757,-2.155144 5.77271,-4.464228 8.46664,-12.39208 2.69393,-7.927852 9.15936,-26.09264 9.15936,-26.09264 0,0 1.84727,-7.543006 9.0824,-6.388464 7.23513,1.154542 10.85269,5.233922 7.15816,17.318124 -3.69454,12.084202 -8.38967,22.936893 -8.38967,22.936893 0,0 -2.23212,4.387259 0,5.156953 2.23211,0.769694 6.00361,-5.5418 6.00361,-5.5418 0,0 3.30969,-4.849074 5.61877,-11.314508 2.30909,-6.465433 4.46423,-12.238141 4.46423,-12.238141 l -3.34136,0.02096 c 0,0 -3.41754,-0.899957 -2.92771,-7.539882 0.48983,-6.639924 3.75536,-6.258945 3.75536,-6.258945 l 7.11929,-0.05443 7.73617,-22.104534 c 0,0 2.21919,-4.919379 7.95435,-4.702014 4.12394,0.156299 7.23667,2.098921 7.23667,2.098921 0,0 5.30876,2.538196 1.06356,12.987913 -4.24519,10.449718 -4.72642,11.673424 -4.72642,11.673424 l 4.58671,-3.92e-4 c 0,0 4.60175,0.293871 4.4863,5.027492 -0.11545,4.73362 -0.88515,9.120878 -6.96573,9.197848 -6.08059,0.07697 -7.19921,0.08552 -7.19921,0.08552 l -7.46347,22.65895 c 0,0 -2.7709,5.38786 1.07757,5.618769 3.84847,0.230908 8.77452,-4.233319 8.77452,-4.233319 0,0 3.7715,-4.002411 4.23332,-6.542403 0.46181,-2.539991 2.23211,-9.005424 9.15936,-8.774516 6.92725,0.230908 8.08179,3.771502 8.08179,3.771502 0,0 2.57649,5.565652 -3.19263,13.838345 -5.76911,8.272693 -8.59924,10.939548 -8.59924,10.939548 0,0 -6.36175,8.349367 -16.32155,7.857664 -8.36278,-0.412861 -9.23906,-0.738849 -9.23906,-0.738849 0,0 -3.51166,-0.641514 -5.76487,-2.02035 -1.4387,-0.880403 -2.46873,-1.95272 -2.46873,-1.95272 0,0 -6.31747,4.201713 -14.31804,4.092862 -8.00056,-0.108851 -13.3887,-4.4629 -13.3887,-4.4629 0,0 -5.82354,5.224859 -15.29359,4.571751 -9.47006,-0.653107 -13.66083,-5.714689 -13.66083,-5.714689 0,0 -7.07533,5.932392 -20.95387,5.224859 -13.87853,-0.707533 -20.02862,-5.769115 -20.02862,-5.769115 0,0 -6.69435,6.748776 -16.81752,5.769115 -10.12316,-0.979661 -22.80433,-8.054991 -17.25291,-21.71582 5.55141,-13.660829 7.29303,-20.464031 7.29303,-20.464031 0,0 0.86678,-2.42502 -0.28776,-3.233199 -1.15454,-0.80818 -4.2718,1.693327 -5.19543,3.386655 -0.92364,1.693328 -7.19798,19.276488 -7.19798,19.276488 l -3.37439,10.340867 -2.23145,5.986817 c 0,0 -3.42881,6.585499 -8.32712,6.531074 -4.8983,-0.05443 -6.34058,-0.816384 -6.34058,-0.816384 l -0.53065,-0.489831 c 0,0 -1.66955,1.388707 -7.94256,1.157799 -6.273013,-0.230908 -7.520586,-0.507827 -7.520586,-0.507827 0,0 -1.662478,-0.358158 -3.024231,-0.993077 -1.462664,-0.681969 -2.944081,-2.539991 -2.944081,-2.539991 0,0 -4.930045,3.651091 -10.938177,4.026034 -8.475478,0.52892 -13.824106,-5.823541 -13.824106,-5.823541 0,0 -7.806534,-6.235149 -2.542626,-19.907876 z"
             id="path34"
             sodipodi:nodetypes="ccsscsscscsscsccscssssscssccsscsscscsccscccscsccssccscsscscscscscscscsscsscccsccscscscsc" />
          <path
             style="fill:#0330f9;fill-opacity:1;stroke:#000000;stroke-width:2.9;stroke-linecap:butt;stroke-linejoin:miter;stroke-dasharray:none;stroke-opacity:1"
             d="m 85.824661,59.902322 -3.333638,10.386894 c 0,0 -0.991365,8.316141 0.968721,8.410221 3.344772,0.160542 5.013759,-3.763572 5.013759,-3.763572 0,0 3.698736,-4.920745 5.41068,-15.557521 1.726414,-10.72668 -5.278249,-5.204582 -5.278249,-5.204582 z"
             id="path35"
             sodipodi:nodetypes="ccscscc" />
          <path
             style="fill:#0330f9;fill-opacity:1;stroke:#000000;stroke-width:2.9;stroke-linecap:butt;stroke-linejoin:miter;stroke-dasharray:none;stroke-opacity:1"
             d="m 190.2877,58.93935 c 0,0 2.92484,2.924838 6.52316,-0.673483 3.59832,-3.598322 0.51954,-5.888162 0.51954,-5.888162 0,0 -2.27059,-2.597719 -4.69513,1.808781 -2.42454,4.406501 -2.34757,4.752864 -2.34757,4.752864 z"
             id="path36"
             sodipodi:nodetypes="cscsc" />
        </g>
      </g>
    </g>
  </g>
</svg>
