<?xml version="1.0" encoding="UTF-8" standalone="no"?>
<!-- Created with Inkscape (http://www.inkscape.org/) -->

<svg
   version="1.1"
   id="svg1"
   width="640"
   height="640"
   viewBox="0 0 640 640"
   sodipodi:docname="SearchIcon.svg"
   inkscape:version="1.4 (86a8ad7, 2024-10-11)"
   xmlns:inkscape="http://www.inkscape.org/namespaces/inkscape"
   xmlns:sodipodi="http://sodipodi.sourceforge.net/DTD/sodipodi-0.dtd"
   xmlns="http://www.w3.org/2000/svg"
   xmlns:svg="http://www.w3.org/2000/svg">
  <defs
     id="defs1" />
  <sodipodi:namedview
     id="namedview1"
     pagecolor="#505050"
     bordercolor="#ffffff"
     borderopacity="1"
     inkscape:showpageshadow="0"
     inkscape:pageopacity="0"
     inkscape:pagecheckerboard="1"
     inkscape:deskcolor="#505050"
     inkscape:zoom="1.2625"
     inkscape:cx="319.60396"
     inkscape:cy="320"
     inkscape:window-width="1920"
     inkscape:window-height="1009"
     inkscape:window-x="-8"
     inkscape:window-y="-8"
     inkscape:window-maximized="1"
     inkscape:current-layer="g1" />
  <g
     inkscape:groupmode="layer"
     inkscape:label="Image"
     id="g1">
    <path
       style="fill:#ffffff"
       d="M 606.5,639.14346 C 599.84224,636.95578 589.23789,626.86558 505.00205,542.56656 454.67818,492.20495 413.0093,451 412.40455,451 c -0.60476,0 -4.89427,2.8623 -9.53226,6.36066 -4.63798,3.49836 -9.7691,7.11462 -11.40249,8.03613 -1.63339,0.92151 -4.9948,2.98671 -7.4698,4.58934 -19.80044,12.82129 -51.26058,25.17116 -80,31.4045 -20.81683,4.515 -55.00013,6.06455 -79,3.58111 -33.65558,-3.48257 -73.48465,-17.19475 -103.21224,-35.53344 -10.03603,-6.19114 -29.092485,-20.18239 -34.854916,-25.59049 -1.961935,-1.8413 -5.336935,-4.94358 -7.5,-6.89396 -2.163064,-1.95038 -8.03168,-8.02538 -13.041369,-13.5 C 32.71427,386.6512 11.459888,342.33877 2.8602142,291 0.95132321,279.60421 0.59793633,273.75919 0.59298302,253.5 0.58773684,232.04299 0.86916135,227.85765 3.2489819,214 6.4882276,195.13793 9.6631497,182.97079 15.418976,167.36134 41.639309,96.253415 96.253415,41.639309 167.36134,15.418976 182.9614,9.6666118 195.12804,6.4907874 214,3.2450222 c 13.88838,-2.38864567 17.99541,-2.66398862 39.5,-2.64815027 21.43981,0.0157906 25.65346,0.30303601 39.5,2.69272677 50.12104,8.6500843 93.53009,29.5822383 130.10955,62.7397553 5.28525,4.790826 11.4108,10.681605 13.61233,13.09062 2.20153,2.409014 5.4666,5.955026 7.2557,7.880026 1.78911,1.925 6.94023,8.45 11.44695,14.5 24.63445,33.07034 39.7294,67.52305 47.59094,108.62151 3.33724,17.44639 4.08076,54.98424 1.48331,74.88782 -5.65168,43.3075 -22.05607,84.20806 -47.40007,118.18117 -3.35429,4.49636 -6.09871,8.65634 -6.09871,9.2444 0,0.58806 41.18923,42.24328 91.53162,92.56715 51.67149,51.65247 92.66175,93.41159 94.12674,95.89228 7.40528,12.53942 1.96518,29.14004 -11.80412,36.02064 -6.16576,3.08107 -13.17109,3.93163 -18.35424,2.22849 z m -321,-188.5617 C 349.13298,440.37157 405.3561,398.33072 433.38596,340 c 8.49416,-17.67653 14.76992,-38.27908 18.01916,-59.15469 1.51372,-9.72528 2.42702,-45.68848 1.21033,-47.65924 -0.23296,-0.37734 -1.16793,-5.74468 -2.07772,-11.92743 -2.63081,-17.87845 -9.16905,-38.58519 -17.29191,-54.76381 C 421.8412,143.77981 411.69795,129.62553 394.53421,112.47516 362.85864,80.824265 324.7492,61.670489 281,55.412948 267.09721,53.424402 238.64424,53.450051 225,55.463427 137.13018,68.429707 68.429707,137.13018 55.463427,225 c -2.013376,13.64424 -2.039025,42.09721 -0.05048,56 6.214561,43.44872 25.233414,81.49096 56.476362,112.96621 17.03243,17.15907 31.99109,27.92546 54.50314,39.22823 35.00648,17.57593 78.42777,23.91457 119.10755,17.38732 z"
       id="path1" />
  </g>
</svg>
