<?xml version="1.0" encoding="UTF-8" standalone="no"?>
<!-- Created with Inkscape (http://www.inkscape.org/) -->

<svg
   version="1.1"
   id="svg1"
   width="702"
   height="747"
   viewBox="0 0 702 747"
   sodipodi:docname="SettingsIcon.svg"
   inkscape:version="1.4 (86a8ad7, 2024-10-11)"
   xmlns:inkscape="http://www.inkscape.org/namespaces/inkscape"
   xmlns:sodipodi="http://sodipodi.sourceforge.net/DTD/sodipodi-0.dtd"
   xmlns="http://www.w3.org/2000/svg"
   xmlns:svg="http://www.w3.org/2000/svg">
  <defs
     id="defs1" />
  <sodipodi:namedview
     id="namedview1"
     pagecolor="#505050"
     bordercolor="#ffffff"
     borderopacity="1"
     inkscape:showpageshadow="0"
     inkscape:pageopacity="0"
     inkscape:pagecheckerboard="1"
     inkscape:deskcolor="#505050"
     inkscape:zoom="0.54082999"
     inkscape:cx="171.03342"
     inkscape:cy="218.18317"
     inkscape:window-width="1920"
     inkscape:window-height="1009"
     inkscape:window-x="-8"
     inkscape:window-y="-8"
     inkscape:window-maximized="1"
     inkscape:current-layer="g1" />
  <g
     inkscape:groupmode="layer"
     inkscape:label="Image"
     id="g1">
    <path
       style="fill:#ffffff"
       d="m 332.5,745.43265 c -1.1,-0.16225 -8.3,-0.81683 -16,-1.45463 -15.31228,-1.26833 -26.30937,-3.18018 -32.19998,-5.59801 -21.44173,-8.80082 -35.28364,-30.19756 -35.30703,-54.57742 -0.026,-27.07568 -17.59167,-54.97018 -42.35476,-67.25979 -12.39317,-6.15057 -22.29187,-8.516 -35.69989,-8.53099 -13.35149,-0.0149 -22.77842,2.33203 -36.93834,9.19628 -22.4239,10.87035 -37.48372,11.45931 -56.49729,2.2095 C 64.578862,613.13034 47.1166,591.24244 27.196249,556.36148 21.698493,546.73479 9.7645275,522.24897 8.4995226,518 8.0901575,516.625 7.4198403,515.05 7.0099288,514.5 2.3218635,508.20977 0.76055598,483.49729 4.3920638,473.06425 8.7893118,460.43129 17.293175,450.14529 30.605478,441.35731 c 13.864347,-9.15239 22.087261,-17.65159 28.822685,-29.79111 12.750045,-22.97989 12.750045,-52.15251 0,-75.1324 C 52.670712,324.25458 45.311916,316.62331 31.12886,307.08665 11.430612,293.84157 3.3208585,280.74562 2.2758448,260.49366 1.7334688,249.98263 3.0042441,242.47779 6.8079324,233.72842 7.818975,231.40279 9.5014174,227.475 10.546693,225 c 12.008662,-28.43406 38.227153,-70.67058 53.459176,-86.11973 7.352963,-7.45778 16.540485,-12.63562 27.05802,-15.24918 13.299371,-3.30483 25.214811,-1.35393 42.430371,6.94708 14.59723,7.0385 24.0191,9.42183 37.24667,9.42183 13.65949,0 22.57574,-2.07301 34.94598,-8.12488 25.74842,-12.59684 43.27952,-39.994029 43.30608,-67.677715 C 249.02122,34.779752 267.69126,11.935715 296,6.681227 326.05012,1.103514 377.24122,1.0694122 406.5,6.6076157 427.96128,10.669881 444.90526,25.953368 450.72654,46.5 c 0.77913,2.75 1.79621,10.4 2.26018,17 1.35939,19.337391 5.52565,31.701898 14.97873,44.45339 C 483.58169,129.01854 505.27061,140 531.25907,140 c 13.10343,0 22.62172,-2.37958 36.74093,-9.18527 18.27341,-8.80808 29.72014,-10.64258 43.56763,-6.98232 13.98974,3.69786 23.16487,9.86859 32.78239,22.04778 15.99161,20.25103 26.69826,37.42713 39.96882,64.11981 13.53784,27.23028 16.25684,36.33294 15.38328,51.5 -1.12037,19.45223 -9.34014,32.48103 -28.70814,45.50405 -11.54762,7.7646 -16.97897,12.70799 -22.5038,20.482 C 637.36742,343.13695 633.5,355.13741 633.5,374 c 0,12.69609 0.84649,17.64735 4.787,28 6.33995,16.65656 15.94449,28.04137 33.29833,39.47041 18.93153,12.46809 27.09594,25.8253 28.13883,46.03593 0.60904,11.803 -0.63603,17.68365 -6.82801,32.24962 -12.28347,28.89561 -29.82394,58.65494 -48.54613,82.36385 -9.61752,12.17919 -18.79265,18.34992 -32.78239,22.04778 C 597.8318,627.79834 586.19084,625.93045 568,617.17682 553.77323,610.33074 544.37593,608 531,608 c -26.47152,0 -50.06551,12.58779 -64.87794,34.61347 -8.34092,12.40272 -11.84911,23.58976 -13.13534,41.88653 -0.46397,6.6 -1.48749,14.25 -2.27448,17 -5.99672,20.95431 -22.7498,35.86875 -44.85357,39.93092 -17.45309,3.20748 -62.19576,5.6482 -73.35867,4.00173 z m 39.65343,-263.02124 c 19.74995,-3.7465 39.87437,-14.0826 55.23159,-28.36749 6.53827,-6.08173 15.7736,-18.33049 20.68209,-27.43051 C 473.44562,379.5633 461.28067,320.09599 419.62312,287.56742 399.19707,271.6176 376.57887,263.7858 351,263.80591 289.68302,263.85413 240.78364,312.74362 240.78364,374 c 0,33.84964 15.10233,65.42752 41.14796,86.0374 17.48943,13.83936 35.90243,21.29805 60.0684,24.33234 5.72853,0.71928 21.40546,-0.29887 30.15343,-1.95833 z"
       id="path1" />
  </g>
</svg>
