<?xml version="1.0" encoding="UTF-8" standalone="no"?>
<!-- Created with Inkscape (http://www.inkscape.org/) -->

<svg
   version="1.1"
   id="svg1"
   width="429"
   height="536"
   viewBox="0 0 429 536"
   sodipodi:docname="Captura de pantalla 2025-04-06 112048.svg"
   inkscape:version="1.4 (86a8ad7, 2024-10-11)"
   xmlns:inkscape="http://www.inkscape.org/namespaces/inkscape"
   xmlns:sodipodi="http://sodipodi.sourceforge.net/DTD/sodipodi-0.dtd"
   xmlns="http://www.w3.org/2000/svg"
   xmlns:svg="http://www.w3.org/2000/svg">
  <defs
     id="defs1" />
  <sodipodi:namedview
     id="namedview1"
     pagecolor="#505050"
     bordercolor="#ffffff"
     borderopacity="1"
     inkscape:showpageshadow="0"
     inkscape:pageopacity="0"
     inkscape:pagecheckerboard="1"
     inkscape:deskcolor="#505050"
     inkscape:zoom="0.53296854"
     inkscape:cx="30.958675"
     inkscape:cy="180.1232"
     inkscape:window-width="1920"
     inkscape:window-height="1009"
     inkscape:window-x="-8"
     inkscape:window-y="-8"
     inkscape:window-maximized="1"
     inkscape:current-layer="g1" />
  <g
     inkscape:groupmode="layer"
     inkscape:label="Image"
     id="g1">
    <path
       style="fill:#ffffff"
       d="M 72.804442,533.89043 C 58.519586,532.5117 43.914651,526.55317 32.462504,517.4317 18.507022,506.31636 8.1388533,490.10406 4.0473283,473 2.1522481,465.07788 2.0135358,461.29024 2.007006,417.28751 c -0.00664,-44.75443 0.096995,-47.49045 1.9905677,-52.55148 6.3081993,-16.86017 29.1344533,-21.85311 42.8514113,-9.37318 1.291942,1.17543 3.541942,4.38715 5,7.13715 l 2.651015,5 0.5,47.5 0.5,47.5 2.660786,4.5 c 3.53427,5.97726 7.285929,9.4075 13.339214,12.19639 l 5,2.30361 H 215 353.5 l 5,-2.30361 C 364.55328,476.4075 368.30494,472.97726 371.83921,467 L 374.5,462.5 V 268 C 374.5,83.865099 374.40574,73.327524 372.7313,70.263498 369.64116,64.608923 364.67094,59.755905 359.50728,57.35131 L 354.5,55.019538 H 215 75.5 L 70.492721,57.35131 C 65.32906,59.755905 60.358841,64.608923 57.2687,70.263498 55.668977,73.190793 55.452231,78.038025 55,121 l -0.5,47.5 -2.651015,5 c -3.390359,6.39446 -5.971799,8.75124 -13.220134,12.06964 -4.965809,2.27342 -6.812509,2.60917 -12.042241,2.18938 C 16.422569,186.94314 8.3534963,181.30936 4.3351445,172.22315 L 2,166.94297 2.007006,119.22149 C 2.0134073,75.619324 2.179769,70.809439 3.9342701,63.5 9.775048,39.166696 25.302426,19.938401 47.712974,9.2867398 64.125368,1.4859814 53.413203,1.9291273 218.27858,2.2307009 L 365.5,2.5 372,4.8387102 c 10.42509,3.7509645 18.60806,8.2000368 25.98657,14.1288848 13.76484,11.060438 23.29701,25.811926 27.5739,42.671934 L 428,71.25645 l -0.003,197.12177 -0.003,197.12178 -2.47541,9.23969 C 420.5454,493.30616 410.89299,507.69232 396,518.73625 c -11.83514,8.77637 -24.58108,13.63353 -39.90236,15.20579 -12.4197,1.2745 -270.039801,1.22757 -283.293198,-0.0516 z M 185.5,401.31707 c -7.0425,-1.56786 -11.60569,-3.80936 -15.4503,-7.58937 -5.6397,-5.54493 -8.05228,-11.26454 -8.03993,-19.06061 0.0174,-11.00693 1.32561,-12.72033 36.39367,-47.66709 L 230.01278,295.5 126.25639,295 22.5,294.5 16.792086,291.69704 C -2.6478201,282.15078 -2.9889046,254.14986 16.218127,244.57859 L 21.392689,242 125.69634,242 C 183.06335,242 230,241.65982 230,241.24405 c 0,-0.41578 -14.22133,-14.92828 -31.60295,-32.25 -34.71155,-34.59194 -36.36925,-36.73852 -36.38728,-47.11832 -0.0137,-7.86433 2.29925,-13.59148 7.71078,-19.09318 5.38424,-5.47395 11.1001,-7.787 19.20759,-7.77278 10.90182,0.0191 10.47437,-0.3463 72.67895,62.13192 52.8249,53.05728 57.20172,57.71155 58.36899,62.06913 1.62191,6.05477 0.92964,16.21807 -1.43939,21.13198 -1.16542,2.41735 -22.63899,24.63466 -57.88948,59.89451 -46.34169,46.354 -56.91144,56.44121 -61.09202,58.30298 -5.43984,2.42258 -10.84744,3.49091 -14.05519,2.77678 z"
       id="path1" />
  </g>
</svg>
