<?xml version="1.0" encoding="UTF-8" standalone="no"?>
<!-- Created with Inkscape (http://www.inkscape.org/) -->

<svg
   version="1.1"
   id="svg1"
   width="638"
   height="641"
   viewBox="0 0 638 641"
   sodipodi:docname="Captura de pantalla 2025-04-06 140356.svg"
   inkscape:version="1.4 (86a8ad7, 2024-10-11)"
   xmlns:inkscape="http://www.inkscape.org/namespaces/inkscape"
   xmlns:sodipodi="http://sodipodi.sourceforge.net/DTD/sodipodi-0.dtd"
   xmlns="http://www.w3.org/2000/svg"
   xmlns:svg="http://www.w3.org/2000/svg">
  <defs
     id="defs1" />
  <sodipodi:namedview
     id="namedview1"
     pagecolor="#505050"
     bordercolor="#ffffff"
     borderopacity="1"
     inkscape:showpageshadow="0"
     inkscape:pageopacity="0"
     inkscape:pagecheckerboard="1"
     inkscape:deskcolor="#505050"
     inkscape:zoom="0.63026521"
     inkscape:cx="-34.112624"
     inkscape:cy="385.55198"
     inkscape:window-width="1920"
     inkscape:window-height="1009"
     inkscape:window-x="-8"
     inkscape:window-y="-8"
     inkscape:window-maximized="1"
     inkscape:current-layer="g1" />
  <g
     inkscape:groupmode="layer"
     inkscape:label="Image"
     id="g1">
    <path
       style="fill:#ffffff"
       d="M 95.782987,640.05897 C 62.014754,635.10442 30.092491,612.57713 13.606518,582.06769 7.5681616,570.89292 3.309251,558.42428 1.4084014,546.35576 -0.86638874,531.91309 -0.21296034,319.76427 2.1344293,310.63603 7.994611,287.84767 17.653804,270.46845 32.9739,255.14835 46.986529,241.13572 64.934974,230.78776 84.684231,225.33537 l 9.777349,-2.69934 219.27813,-0.2632 c 218.24099,-0.26196 219.32611,-0.25343 229.42253,1.80409 45.2125,9.21372 79.97928,43.96584 88.99664,88.95911 1.98528,9.90583 1.89296,227.55596 -0.10075,237.5 -3.16609,15.79159 -11.64801,33.89314 -22.40115,47.80705 -16.71103,21.62304 -44.51309,37.63994 -72.30977,41.658 -8.47775,1.22548 -433.20093,1.18497 -441.564223,-0.0421 z M 302.84868,511.65837 c 3.25881,-1.67599 21.96836,-19.78696 63.73654,-61.69737 52.02907,-52.20624 59.3488,-59.92495 61,-64.32497 6.68411,-17.81138 -5.55582,-36.40917 -24.00762,-36.47804 -12.27817,-0.0458 -9.44577,-2.34212 -63.37347,51.37834 l -49.25744,49.06815 -22.24256,-22.14039 c -13.97154,-13.90737 -23.85877,-22.94484 -26.58892,-24.30372 -5.99189,-2.98234 -16.35399,-2.96665 -22.3497,0.0339 -12.90501,6.45819 -18.64429,20.03529 -14.16682,33.51367 1.45031,4.36582 5.47251,8.78816 35.25,38.75686 32.22806,32.43499 37.35358,36.89044 44.61289,38.78045 4.5807,1.19262 12.25978,0.0501 17.3871,-2.58683 z M 91.294035,171.28956 C 64.783857,162.10475 62.536728,124.82209 87.747141,112.44218 l 5.714439,-2.80615 h 224 224 l 5.36735,2.9728 c 11.78651,6.52816 17.79036,17.48784 16.91573,30.87869 -0.76734,11.74824 -7.07759,21.19031 -17.62254,26.36873 l -5.66054,2.77978 -222,0.22195 C 107.38938,173.069 96.207211,172.99179 91.294035,171.28956 Z M 138.30533,65.102791 c -9.60789,-1.919747 -17.77132,-8.627512 -22.47429,-18.466758 -7.47768,-15.644325 -0.29161,-34.723728 15.945,-42.3348354 l 5.68554,-2.6651647 h 179.52097 179.52097 l 6.70288,3.2997874 c 12.02887,5.9217447 18.2535,16.6395297 17.53955,30.2002127 -0.66546,12.639619 -7.29289,22.48519 -18.78437,27.905673 l -5.5,2.594327 -177,0.148609 c -97.35,0.08174 -178.87031,-0.225098 -181.15625,-0.681851 z"
       id="path1" />
    <path
       style="fill:#000000;fill-rule:evenodd;stroke:#000000;stroke-width:0;stroke-linecap:square;stroke-linejoin:round;stroke-miterlimit:5.2;stroke-opacity:0.89803898;paint-order:fill markers stroke;fill-opacity:1"
       d="m 284.56487,513.32175 c -4.70028,-1.67664 -8.36817,-4.42108 -18.92324,-14.15904 -11.94308,-11.01852 -49.34973,-49.0251 -55.09569,-55.97932 -4.83562,-5.85245 -6.28081,-10.39979 -5.68079,-17.8748 0.73022,-9.09703 6.58658,-17.29165 15.46035,-21.63318 3.62198,-1.77206 5.46795,-2.15099 10.43978,-2.14302 10.60918,0.017 11.84018,0.92797 42.99105,31.81326 l 17.11834,16.97239 47.5441,-47.05939 c 26.14924,-25.88267 49.63776,-48.48736 52.1967,-50.23266 4.58987,-3.13047 4.75025,-3.17327 11.89264,-3.17327 6.31118,0 7.81616,0.28292 11.73064,2.20525 5.40227,2.65295 9.6449,7.14775 12.43041,13.16922 1.64687,3.56005 2.06023,5.65739 2.05138,10.40833 -0.0157,8.40652 -1.58379,11.27314 -12.80203,23.40285 -17.08234,18.47025 -109.11066,109.49925 -112.87148,111.64583 -3.47309,1.98235 -10.19403,3.81735 -13.72376,3.74695 -0.96026,-0.0191 -3.10154,-0.51839 -4.7584,-1.1094 z"
       id="path2" />
  </g>
</svg>
