<?xml version="1.0" encoding="UTF-8" standalone="no"?>
<!-- Created with Inkscape (http://www.inkscape.org/) -->

<svg
   version="1.1"
   id="svg1"
   width="768"
   height="460"
   viewBox="0 0 768 460"
   sodipodi:docname="ViewProfileIcon.svg"
   inkscape:version="1.4 (86a8ad7, 2024-10-11)"
   xmlns:inkscape="http://www.inkscape.org/namespaces/inkscape"
   xmlns:sodipodi="http://sodipodi.sourceforge.net/DTD/sodipodi-0.dtd"
   xmlns="http://www.w3.org/2000/svg"
   xmlns:svg="http://www.w3.org/2000/svg">
  <defs
     id="defs1" />
  <sodipodi:namedview
     id="namedview1"
     pagecolor="#505050"
     bordercolor="#ffffff"
     borderopacity="1"
     inkscape:showpageshadow="0"
     inkscape:pageopacity="0"
     inkscape:pagecheckerboard="1"
     inkscape:deskcolor="#505050"
     inkscape:zoom="0.62102422"
     inkscape:cx="332.51521"
     inkscape:cy="252.80818"
     inkscape:window-width="1920"
     inkscape:window-height="1009"
     inkscape:window-x="-8"
     inkscape:window-y="-8"
     inkscape:window-maximized="1"
     inkscape:current-layer="g1" />
  <g
     inkscape:groupmode="layer"
     inkscape:label="Image"
     id="g1">
    <path
       style="fill:#ffffff"
       d="M 362,457.94041 C 269.92162,453.41232 176.68514,414.08985 98,346.59845 77.807739,329.27874 54.530534,305.98706 35.940156,284.5 30.229904,277.9 25.308374,272.275 25.003422,272 23.306611,270.46985 6.1393468,248.027 4.732713,245.5 -1.5522865,234.20909 -1.5581444,225.91168 4.7108272,214.5 10.268269,204.38355 43.890096,165.2891 66.095727,143.12349 132.39682,76.941874 207.60145,32.964051 288.5,13.066924 322.011,4.8248405 347.44315,1.8332567 384,1.8332567 c 36.52836,0 62.11087,3.0036434 95.5,11.2126583 85.88025,21.114425 164.70418,69.008772 234.5,142.484965 21.58708,22.72539 45.93776,52.31022 50.77798,61.69267 3.90117,7.56215 3.88728,17.9514 -0.0344,25.77645 -5.47435,10.92298 -36.36821,47.44871 -61.03914,72.16641 -29.68424,29.7405 -66.44908,59.34054 -95.52595,76.90968 -4.02686,2.43315 -8.52686,5.18654 -10,6.11864 -14.38991,9.10491 -41.36224,22.33059 -63.17844,30.97906 -6.875,2.72541 -14.075,5.58477 -16,6.35411 -5.58733,2.23303 -32.62307,10.07909 -43,12.47906 -36.24946,8.38372 -75.66802,11.81848 -114,9.93345 z m 46.9372,-68.59126 c 26.84441,-3.9383 53.34271,-15.5484 75.0628,-32.88841 7.52856,-6.01035 22.11658,-20.70931 27.74969,-27.96074 29.56385,-38.05713 40.45513,-88.58485 29.25741,-135.73326 C 526.79407,132.92228 479.63761,86.278554 419.5,72.580794 394.16521,66.810197 361.76447,67.915222 337.5,75.377399 285.80195,91.276366 245.27637,131.80195 229.3774,183.5 c -7.46218,24.26447 -8.5672,56.66521 -2.79661,82 11.09284,48.70114 44.2015,89.81649 89.11563,110.66651 29.56904,13.72652 60.10553,18.04385 93.24078,13.18264 z M 373.5,316.35407 C 352.51939,312.97677 335.46874,304.38228 321.8869,290.33818 310.69909,278.76958 303.83403,266.51004 299.85842,251 c -2.62215,-10.22983 -3.12832,-29.37173 -1.00482,-38 6.40879,-26.04036 20.36677,-45.16202 42.44415,-58.14612 35.75637,-21.02895 81.72637,-12.96599 109.15928,19.14612 16.30117,19.08164 23.94571,47.69317 19.01086,71.15267 -7.39741,35.16604 -31.63041,60.48481 -66.46789,69.44599 -5.75463,1.48026 -24.33928,2.58614 -29.5,1.75541 z"
       id="path1" />
  </g>
</svg>
