<?xml version="1.0" encoding="UTF-8" standalone="no"?>
<!-- Created with Inkscape (http://www.inkscape.org/) -->

<svg
   version="1.1"
   id="svg1"
   width="722"
   height="722"
   viewBox="0 0 722 722"
   xmlns="http://www.w3.org/2000/svg"
   xmlns:svg="http://www.w3.org/2000/svg">
  <defs
     id="defs1" />
  <g
     id="g1">
    <path
       style="fill:#ffffff"
       d="M 100,719.00275 C 74.62022,714.17021 54.616895,703.61625 36.50032,685.49968 17.849709,666.84907 7.506633,646.82437 2.9269469,620.5 1.0952483,609.97126 1.0129781,602.54328 1.0066311,447.11933 1.0007389,302.83184 1.1790126,283.61268 2.6065822,274.63335 5.5311739,256.23785 11.834783,240.28298 22.315102,224.74974 34.482591,206.71589 34.162343,206.96504 168.52468,111 236.6754,62.325 294.39476,21.251754 296.78992,19.726121 320.52827,4.6056375 351.59956,-1.8879671 379,2.5449934 c 16.1734,2.6166018 30.00714,7.5185356 42.62285,15.1032416 6.42037,3.86 44.15438,30.53623 114.36629,80.851765 5.37241,3.85 14.8273,10.6 21.01086,15 6.18356,4.4 15.63817,11.15 21.01025,15 5.37208,3.85 13.75495,9.84208 18.62859,13.31573 93.11541,66.3673 88.08392,62.39246 100.86699,79.68427 11.52736,15.5932 17.93651,30.7768 21.5276,51 1.88476,10.61398 1.95354,16.74053 1.95994,174.58058 0.006,155.91613 -0.0817,164.06878 -1.87829,174 -4.72344,26.11006 -15.04953,45.93537 -33.57433,64.46017 -18.5248,18.5248 -38.35011,28.85089 -64.46017,33.57433 C 611.69115,720.81367 605.18119,721 555.22493,721 494.18082,721 493.3264,720.92741 481.708,714.75409 475.02103,711.20105 466.03965,701.98516 462.54706,695.09288 456.84998,683.85022 457,687.06331 457,576.28716 c 0,-90.37113 -0.18084,-102.53981 -1.59538,-107.35566 -5.07779,-17.28744 -18.0264,-29.99327 -35.09792,-34.43983 -8.46628,-2.20519 -110.14712,-2.20519 -118.6134,0 -17.07152,4.44656 -30.02013,17.15239 -35.09792,34.43983 C 265.18084,473.74735 265,485.91603 265,576.28716 c 0,111.11118 0.17156,107.52056 -5.68985,119.0875 -3.48718,6.88161 -12.23101,15.77346 -19.09946,19.42277 -11.57778,6.15146 -12.31552,6.21207 -74.35503,6.10839 -49.94721,-0.0835 -57.43595,-0.29988 -65.85566,-1.90307 z"
       id="path1" />
  </g>
</svg>
